<svg version="1.1" xmlns="http://www.w3.org/2000/svg" x="0" y="0" width="240" height="180" viewBox="0 0 240 180" xml:space="preserve"><path fill="#FC9F13" d="M0 0h240v180H0V0z"/><text transform="translate(16.999 45.687)"><tspan x="0" y="0" fill="#FFF" font-family="'Lato-Bold'" font-size="23.859">CENT</tspan><tspan x="61.9" y="0" fill="#FFF" font-family="'Lato-Bold'" font-size="23.859">R</tspan><tspan x="76.9" y="0" fill="#FFF" font-family="'Lato-Bold'" font-size="23.859">O DE</tspan><tspan x="0" y="28.6" fill="#FFF" font-family="'Lato-Bold'" font-size="23.859">TREINAMEN</tspan><tspan x="139.8" y="28.6" fill="#FFF" font-family="'Lato-Bold'" font-size="23.859">T</tspan><tspan x="153.1" y="28.6" fill="#FFF" font-family="'Lato-Bold'" font-size="23.859">O </tspan><tspan x="0" y="57.3" fill="#FFF" font-family="'Lato-Bold'" font-size="23.859">D</tspan><tspan x="17.2" y="57.3" fill="#FFF" font-family="'Lato-Bold'" font-size="23.859">A N</tspan><tspan x="56.8" y="57.3" fill="#FFF" font-family="'Lato-Bold'" font-size="23.859">O</tspan><tspan x="75.2" y="57.3" fill="#FFF" font-family="'Lato-Bold'" font-size="23.859" letter-spacing="-2">V</tspan><tspan x="90.1" y="57.3" fill="#FFF" font-family="'Lato-Bold'" font-size="23.859" letter-spacing="-1">A</tspan><tspan x="105.3" y="57.3" fill="#FFF" font-family="'Lato-Bold'" font-size="23.859">TEC</tspan></text><text transform="translate(19.859 134.94)"><tspan x="0" y="0" fill="#FFF" font-family="'Lato-Regular'" font-size="14">Cursos, workshops</tspan><tspan x="0" y="16.8" fill="#FFF" font-family="'Lato-Regular'" font-size="14">e </tspan><tspan x="10" y="16.8" fill="#FFF" font-family="'Lato-Regular'" font-size="14">ev</tspan><tspan x="24.2" y="16.8" fill="#FFF" font-family="'Lato-Regular'" font-size="14">entos de tecnologia</tspan></text><g><path fill="#37BB68" d="M0 0h240v180H0V0z"/><g fill="#FFF"><path d="M30.6 41.6c.2 0 .3.1.5.2l1.3 1.4c-.7.9-1.6 1.5-2.6 2s-2.2.7-3.7.7c-1.3 0-2.4-.2-3.5-.7-1-.4-1.9-1-2.6-1.8-.7-.8-1.3-1.7-1.7-2.8-.4-1.1-.6-2.3-.6-3.5 0-1.3.2-2.5.6-3.6.4-1.1 1-2 1.8-2.8.8-.8 1.7-1.4 2.8-1.8 1.1-.4 2.3-.7 3.6-.7 1.3 0 2.4.2 3.4.6s1.8 1 2.5 1.6L31.3 32c-.1.1-.1.2-.2.3-.1.1-.2.1-.4.1s-.4-.1-.6-.2c-.2-.1-.4-.3-.7-.5-.3-.2-.7-.3-1.1-.5-.4-.1-1-.2-1.7-.2-.8 0-1.6.1-2.2.4s-1.3.7-1.8 1.2-.9 1.2-1.1 1.9c-.3.8-.4 1.6-.4 2.5 0 1 .1 1.8.4 2.6s.6 1.4 1.1 1.9c.5.5 1 .9 1.7 1.2s1.3.4 2.1.4c.4 0 .8 0 1.2-.1.4 0 .7-.1 1-.2s.6-.2.8-.4c.3-.2.5-.4.8-.6.1-.1.2-.1.3-.2h.1zM45.6 28.4V31H38v4.8h6v2.5h-6v4.9h7.6v2.6H34.7V28.4h10.9zM50.4 28.5c.1 0 .2 0 .3.1.1 0 .1.1.2.2s.2.2.2.3l9.1 11.5c0-.3-.1-.6-.1-.8V28.4H63v17.2h-1.7c-.3 0-.5 0-.6-.1s-.3-.2-.5-.4l-9-11.5c0 .3 0 .5.1.8V45.7h-2.8V28.4h1.7s.1 0 .2.1zM78.6 28.4V31h-5.2v14.6h-3.2V31.1H65v-2.6h13.6zM83.9 38.9v6.7h-3.2V28.4H86c1.2 0 2.2.1 3 .4.8.2 1.5.6 2.1 1 .5.4.9 1 1.2 1.6s.4 1.3.4 2c0 .6-.1 1.1-.3 1.6-.2.5-.4 1-.7 1.4-.3.4-.7.8-1.2 1.1-.5.3-1 .6-1.6.8.4.2.8.6 1 1l4.3 6.4h-2.9c-.3 0-.5-.1-.7-.2-.2-.1-.4-.3-.5-.5l-3.6-5.5c-.1-.2-.3-.4-.4-.4-.2-.1-.4-.1-.7-.1h-1.5zm0-2.3h2c.6 0 1.1-.1 1.6-.2s.8-.4 1.1-.6c.3-.3.5-.6.6-.9s.2-.8.2-1.2c0-.9-.3-1.5-.9-2-.6-.5-1.5-.7-2.6-.7h-2.1v5.6zM112.2 37.1c0 1.3-.2 2.4-.6 3.5s-1 2-1.8 2.8c-.8.8-1.7 1.4-2.8 1.8-1.1.4-2.3.7-3.6.7s-2.5-.2-3.6-.7-2-1.1-2.8-1.8c-.8-.8-1.4-1.7-1.8-2.8-.4-1.1-.6-2.2-.6-3.5s.2-2.4.6-3.5c.4-1.1 1-2 1.8-2.8.8-.8 1.7-1.4 2.8-1.8s2.3-.7 3.6-.7 2.5.2 3.6.7c1.1.4 2 1.1 2.8 1.8.8.8 1.4 1.7 1.8 2.8s.6 2.2.6 3.5zm-3.3 0c0-.9-.1-1.8-.4-2.5-.3-.8-.6-1.4-1.1-1.9-.5-.5-1-.9-1.7-1.2-.7-.3-1.4-.4-2.3-.4-.8 0-1.6.1-2.3.4-.7.3-1.3.7-1.7 1.2s-.8 1.2-1.1 1.9-.3 1.5-.3 2.5c0 .9.1 1.8.4 2.5s.6 1.4 1.1 1.9c.5.5 1 .9 1.7 1.2s1.4.4 2.3.4c.8 0 1.6-.1 2.3-.4.7-.3 1.2-.7 1.7-1.2s.8-1.2 1.1-1.9c.2-.7.3-1.6.3-2.5zM134.7 37.1c0 1.3-.2 2.4-.6 3.5-.4 1.1-1 2-1.8 2.7-.8.8-1.7 1.4-2.8 1.8-1.1.4-2.3.6-3.6.6h-6.6V28.4h6.6c1.3 0 2.5.2 3.6.6 1.1.4 2 1 2.8 1.8s1.4 1.7 1.8 2.7c.4 1.1.6 2.3.6 3.6zm-3.3 0c0-.9-.1-1.8-.4-2.5s-.6-1.4-1.1-1.9c-.5-.5-1-.9-1.7-1.2-.7-.3-1.4-.4-2.3-.4h-3.4v12.1h3.4c.8 0 1.6-.1 2.3-.4.7-.3 1.2-.7 1.7-1.2s.8-1.2 1.1-1.9.4-1.7.4-2.6zM148.1 28.4V31h-7.6v4.8h6v2.5h-6v4.9h7.6v2.6h-10.9V28.4h10.9zM30.9 57.1v2.6h-5.2v14.6h-3.2V59.7h-5.2v-2.6h13.6zM36.3 67.6v6.7H33V57.1h5.3c1.2 0 2.2.1 3 .4.8.2 1.5.6 2.1 1 .5.4.9 1 1.2 1.6s.4 1.3.4 2c0 .6-.1 1.1-.3 1.6-.2.5-.4 1-.7 1.4-.3.4-.7.8-1.2 1.1-.5.3-1 .6-1.6.8.4.2.8.6 1 1l4.3 6.4h-2.9c-.3 0-.5-.1-.7-.2-.2-.1-.4-.3-.5-.5l-3.6-5.5c-.1-.2-.3-.4-.4-.4-.2-.1-.4-.1-.7-.1h-1.4zm0-2.3h2c.6 0 1.1-.1 1.6-.2s.8-.4 1.1-.6c.3-.3.5-.6.6-.9s.2-.8.2-1.2c0-.9-.3-1.5-.9-2-.6-.5-1.5-.7-2.6-.7h-2.1v5.6zM59.4 57.1v2.6h-7.6v4.8h6V67h-6v4.9h7.6v2.6H48.6V57.1h10.8zM65.8 74.3h-3.2V57.1h3.2v17.2zM71.8 57.1c.1 0 .2 0 .3.1.1 0 .1.1.2.2s.2.2.2.3l9.1 11.5c0-.3-.1-.6-.1-.8V57.1h2.8v17.2h-1.7c-.3 0-.5 0-.6-.1s-.3-.2-.5-.4l-9-11.5c0 .3 0 .5.1.8V74.4h-2.8V57.1h2zM102.9 74.3h-2.5c-.3 0-.5-.1-.7-.2-.2-.1-.3-.3-.4-.5L98 70.1h-7.1l-1.3 3.5c-.1.2-.2.4-.4.5-.2.2-.4.2-.7.2H86l6.8-17.2h3.3l6.8 17.2zm-11.2-6.5h5.5l-2.1-5.7-.3-.9c-.1-.3-.2-.7-.3-1.1-.1.4-.2.8-.3 1.1s-.2.7-.3.9l-2.2 5.7zM113.7 68c.1.3.2.6.3.8.1-.3.2-.6.3-.8.1-.3.2-.5.4-.8l5.1-9.6c.1-.1.1-.2.2-.3l.2-.2c.1-.1.2-.1.3-.1h2.8v17.2h-2.8v-11-.7c0-.2 0-.5.1-.8l-5.2 9.8c-.1.2-.3.4-.5.5-.2.1-.4.2-.7.2h-.4c-.3 0-.5-.1-.7-.2-.2-.1-.3-.3-.5-.5l-5.3-9.8c0 .3.1.5.1.8V74.3h-2.8V57.1h2.8c.1 0 .2 0 .3.1s.2.1.2.2c.1.1.1.2.2.3l5.2 9.6c.2.1.3.4.4.7zM137.8 57.1v2.6h-7.6v4.8h6V67h-6v4.9h7.6v2.6h-10.9V57.1h10.9zM142.6 57.1c.1 0 .2 0 .3.1.1 0 .1.1.2.2s.2.2.2.3l9.1 11.5c0-.3-.1-.6-.1-.8V57.1h2.8v17.2h-1.7c-.3 0-.5 0-.6-.1s-.3-.2-.5-.4l-9-11.5c0 .3 0 .5.1.8s0 .5 0 .7v10.6h-2.8V57.1h2zM170.7 57.1v2.6h-5.2v14.6h-3.2V59.7h-5.2v-2.6h13.6zM188.4 65.7c0 1.3-.2 2.4-.6 3.5s-1 2-1.8 2.8c-.8.8-1.7 1.4-2.8 1.8-1.1.4-2.3.7-3.6.7-1.3 0-2.5-.2-3.6-.7-1.1-.4-2-1.1-2.8-1.8-.8-.8-1.4-1.7-1.8-2.8-.4-1.1-.6-2.2-.6-3.5s.2-2.4.6-3.5c.4-1.1 1-2 1.8-2.8.8-.8 1.7-1.4 2.8-1.8 1.1-.4 2.3-.7 3.6-.7 1.3 0 2.5.2 3.6.7 1.1.4 2 1.1 2.8 1.8.8.8 1.4 1.7 1.8 2.8s.6 2.2.6 3.5zm-3.3 0c0-.9-.1-1.8-.4-2.5-.2-.8-.6-1.4-1.1-1.9-.5-.5-1-.9-1.7-1.2-.7-.3-1.4-.4-2.3-.4-.8 0-1.6.1-2.3.4-.7.3-1.3.7-1.7 1.2-.5.5-.8 1.2-1.1 1.9-.3.8-.4 1.6-.4 2.5 0 .9.1 1.8.4 2.5.3.8.6 1.4 1.1 1.9.5.5 1 .9 1.7 1.2.7.3 1.4.4 2.3.4.8 0 1.6-.1 2.3-.4s1.2-.7 1.7-1.2.8-1.2 1.1-1.9c.3-.7.4-1.6.4-2.5zM34.1 94.3c0 1.3-.2 2.4-.6 3.5-.4 1.1-1 2-1.8 2.7-.8.8-1.7 1.4-2.8 1.8-1.1.4-2.3.6-3.6.6h-6.6V85.7h6.6c1.3 0 2.5.2 3.6.6 1.1.4 2 1 2.8 1.8.8.8 1.4 1.7 1.8 2.7.3 1.1.6 2.3.6 3.5zm-3.3 0c0-.9-.1-1.8-.4-2.5s-.6-1.4-1.1-1.9c-.5-.5-1-.9-1.7-1.2s-1.4-.4-2.3-.4H22v12.1h3.4c.8 0 1.6-.1 2.3-.4.7-.3 1.2-.7 1.7-1.2s.8-1.2 1.1-1.9.3-1.6.3-2.6zM51.1 102.9h-2.5c-.3 0-.5-.1-.7-.2-.2-.1-.3-.3-.4-.5l-1.3-3.5h-7.1l-1.3 3.5c-.1.2-.2.3-.4.5s-.4.2-.7.2h-2.5L41 85.7h3.3l6.8 17.2zM40 96.4h5.5l-2.1-5.7-.3-.9c-.1-.3-.2-.7-.3-1.1-.1.4-.2.8-.3 1.1s-.2.7-.3.9L40 96.4zM59.6 85.7c.1 0 .2 0 .3.1.1 0 .1.1.2.2s.2.2.2.3l9.1 11.5c0-.3-.1-.6-.1-.8V85.7h2.8v17.2h-1.7c-.3 0-.5 0-.6-.1s-.3-.2-.5-.4l-9-11.5c0 .3 0 .5.1.8V103h-2.8V85.7h2zM92.1 94.3c0 1.3-.2 2.4-.6 3.5-.4 1.1-1 2-1.8 2.8s-1.7 1.4-2.8 1.8c-1.1.4-2.3.7-3.6.7s-2.5-.2-3.6-.7c-1.1-.4-2-1.1-2.8-1.8s-1.4-1.7-1.8-2.8c-.4-1.1-.6-2.2-.6-3.5s.2-2.4.6-3.5c.4-1.1 1-2 1.8-2.8.8-.8 1.7-1.4 2.8-1.8s2.3-.7 3.6-.7 2.5.2 3.6.7c1.1.4 2 1.1 2.8 1.8.8.8 1.4 1.7 1.8 2.8.4 1.1.6 2.3.6 3.5zm-3.3 0c0-.9-.1-1.8-.4-2.5-.3-.8-.6-1.4-1.1-1.9-.5-.5-1-.9-1.7-1.2-.7-.3-1.4-.4-2.3-.4-.8 0-1.6.1-2.3.4-.7.3-1.3.7-1.7 1.2s-.8 1.2-1.1 1.9-.4 1.6-.4 2.5c0 .9.1 1.8.4 2.5s.6 1.4 1.1 1.9c.5.5 1 .9 1.7 1.2.7.3 1.4.4 2.3.4.8 0 1.6-.1 2.3-.4.7-.3 1.2-.7 1.7-1.2s.8-1.2 1.1-1.9c.3-.7.4-1.5.4-2.5zM92.3 85.7h2.6c.3 0 .5.1.7.2.2.1.3.3.4.5l4.1 10.5c.1.3.3.7.4 1.1.1.4.2.8.4 1.3.2-.9.4-1.7.7-2.4l4-10.5c.1-.2.2-.4.4-.5.2-.2.4-.2.7-.2h2.6l-7 17.2h-2.9l-7.1-17.2zM124 102.9h-2.5c-.3 0-.5-.1-.7-.2-.2-.1-.3-.3-.4-.5l-1.3-3.5H112l-1.3 3.5c-.1.2-.2.3-.4.5s-.4.2-.7.2h-2.5l6.8-17.2h3.3l6.8 17.2zm-11.1-6.5h5.5l-2.1-5.7-.3-.9c-.1-.3-.2-.7-.3-1.1-.1.4-.2.8-.3 1.1s-.2.7-.3.9l-2.2 5.7zM136.2 85.7v2.6H131v14.6h-3.2V88.3h-5.2v-2.6h13.6zM149.1 85.7v2.6h-7.6V93h6v2.5h-6v4.9h7.6v2.6h-10.9V85.7h10.9zM163.8 98.9c.2 0 .3.1.5.2l1.3 1.4c-.7.9-1.6 1.5-2.6 2s-2.2.7-3.7.7c-1.3 0-2.4-.2-3.5-.7-1-.4-1.9-1-2.6-1.8-.7-.8-1.3-1.7-1.7-2.8s-.6-2.3-.6-3.5c0-1.3.2-2.5.6-3.6.4-1.1 1-2 1.8-2.8s1.7-1.4 2.8-1.8c1.1-.4 2.3-.7 3.6-.7 1.3 0 2.4.2 3.4.6s1.8 1 2.5 1.6l-1.1 1.5c-.1.1-.1.2-.2.3-.1.1-.2.1-.4.1s-.4-.1-.6-.2c-.2-.1-.4-.3-.7-.5s-.7-.3-1.1-.5-1-.2-1.7-.2c-.8 0-1.6.1-2.2.4-.7.3-1.3.7-1.8 1.2s-.9 1.2-1.1 1.9-.4 1.6-.4 2.5c0 1 .1 1.8.4 2.6s.6 1.4 1.1 1.9c.5.5 1 .9 1.7 1.2.6.3 1.3.4 2.1.4.4 0 .8 0 1.2-.1.4 0 .7-.1 1-.2.3-.1.6-.2.8-.4.3-.2.5-.4.8-.6.1-.1.2-.1.3-.2-.1.1 0 .1.1.1z"/></g><g fill="#FFF"><path d="M28.1 132.9c.1 0 .1 0 .2.1l.5.6c-.4.5-.9.8-1.5 1.1-.6.3-1.3.4-2.1.4-.7 0-1.4-.1-2-.4-.6-.2-1.1-.6-1.5-1s-.7-1-1-1.6c-.2-.6-.3-1.3-.3-2.1s.1-1.4.4-2.1.6-1.2 1-1.6c.4-.5 1-.8 1.6-1.1.6-.2 1.3-.4 2-.4s1.4.1 1.9.3c.5.2 1 .5 1.4.9l-.4.6-.1.1H28c-.1 0-.1 0-.2-.1-.1 0-.1-.1-.2-.2s-.2-.1-.3-.2c-.1-.1-.3-.1-.4-.2-.2-.1-.4-.1-.6-.2-.2 0-.5-.1-.8-.1-.5 0-1 .1-1.5.3s-.8.4-1.2.8c-.3.3-.6.8-.8 1.2s-.3 1-.3 1.6c0 .6.1 1.2.3 1.7s.4.9.7 1.2c.3.3.7.6 1.1.8.4.2.9.3 1.4.3.3 0 .6 0 .8-.1.2 0 .5-.1.7-.2l.6-.3c.2-.1.4-.3.5-.4.2.3.3.3.3.3zM31.5 127.8v4.5c0 .5.1 1 .4 1.2.2.3.6.4 1.1.4.4 0 .7-.1 1-.3.3-.2.6-.4.9-.7v-5.2h1.2v7.1h-.7c-.2 0-.3-.1-.3-.3l-.1-.8c-.3.3-.7.6-1 .8-.4.2-.8.3-1.3.3-.4 0-.7-.1-1-.2-.3-.1-.5-.3-.7-.5s-.4-.5-.5-.8c-.1-.3-.2-.7-.2-1.1v-4.5h1.2zM38.3 134.9v-7.1h.7c.1 0 .2 0 .3.1.1.1.1.1.1.3l.1 1.1c.2-.5.5-.9.9-1.2.4-.3.8-.4 1.3-.4.2 0 .4 0 .5.1s.3.1.4.2l-.2.9c0 .1-.1.2-.2.2s-.2 0-.3-.1c-.1 0-.3-.1-.6-.1-.4 0-.8.1-1.1.4s-.5.6-.7 1.1v4.5h-1.2zM48 129c-.1.1-.1.2-.3.2-.1 0-.1 0-.2-.1s-.2-.1-.3-.2c-.1-.1-.3-.1-.5-.2s-.4-.1-.6-.1c-.2 0-.4 0-.6.1s-.3.1-.4.2l-.3.3c-.1.1-.1.3-.1.4 0 .2.1.3.2.5s.2.2.4.3c.2.1.4.2.6.2.2.1.4.1.7.2s.5.2.7.3l.6.3c.2.1.3.3.4.5.1.2.2.4.2.7 0 .3-.1.6-.2.9-.1.3-.3.5-.5.7-.2.2-.5.4-.8.5-.3.1-.7.2-1.1.2-.5 0-.9-.1-1.3-.2-.4-.2-.7-.4-1-.6l.3-.5c0-.1.1-.1.1-.1h.2c.1 0 .2 0 .3.1.1.1.2.1.3.2.1.1.3.2.5.2s.4.1.7.1c.2 0 .5 0 .6-.1.2-.1.3-.1.5-.3.1-.1.2-.2.3-.4.1-.1.1-.3.1-.4 0-.2-.1-.4-.2-.5s-.2-.2-.4-.3c-.2-.1-.4-.2-.6-.2-.2-.1-.4-.1-.7-.2-.2-.1-.5-.2-.7-.3s-.4-.2-.6-.4c-.2-.1-.3-.3-.4-.5-.1-.2-.2-.5-.2-.8 0-.3.1-.5.2-.8.1-.2.3-.5.5-.7.2-.2.5-.3.8-.5.3-.1.7-.2 1.1-.2.5 0 .9.1 1.3.2s.7.3 1 .6l-.6.7zM52.8 127.7c.5 0 1 .1 1.4.3.4.2.8.4 1.1.7s.5.7.7 1.2c.2.5.2 1 .2 1.5 0 .6-.1 1.1-.2 1.5-.2.4-.4.8-.7 1.1s-.6.6-1.1.7c-.4.2-.9.3-1.4.3s-1-.1-1.4-.3c-.4-.2-.8-.4-1.1-.7s-.5-.7-.7-1.1c-.2-.4-.2-1-.2-1.5 0-.6.1-1.1.2-1.5.2-.5.4-.8.7-1.2s.6-.6 1.1-.7c.5-.2.9-.3 1.4-.3zm0 6.4c.7 0 1.2-.2 1.6-.7.3-.5.5-1.1.5-2 0-.8-.2-1.5-.5-2s-.9-.7-1.6-.7c-.4 0-.7.1-.9.2-.3.1-.5.3-.7.5s-.3.5-.4.8c-.1.3-.1.7-.1 1.1s0 .8.1 1.1.2.6.4.8c.2.2.4.4.7.5.3.3.6.4.9.4zM61.8 129c-.1.1-.1.2-.3.2-.1 0-.1 0-.2-.1s-.2-.1-.3-.2c-.1-.1-.3-.1-.5-.2s-.4-.1-.6-.1c-.2 0-.4 0-.6.1s-.3.1-.4.2l-.3.3c-.1.1-.1.3-.1.4 0 .2.1.3.2.5s.2.2.4.3c.2.1.4.2.6.2.2.1.4.1.7.2s.5.2.7.3l.6.3c.2.1.3.3.4.5.1.2.2.4.2.7 0 .3-.1.6-.2.9-.1.3-.3.5-.5.7-.2.2-.5.4-.8.5-.3.1-.7.2-1.1.2-.5 0-.9-.1-1.3-.2-.4-.2-.7-.4-1-.6l.3-.5c0-.1.1-.1.1-.1h.2c.1 0 .2 0 .3.1.1.1.2.1.3.2.1.1.3.2.5.2s.4.1.7.1c.2 0 .5 0 .6-.1.2-.1.3-.1.5-.3.1-.1.2-.2.3-.4.1-.1.1-.3.1-.4 0-.2-.1-.4-.2-.5s-.2-.2-.4-.3c-.2-.1-.4-.2-.6-.2-.2-.1-.4-.1-.7-.2-.2-.1-.5-.2-.7-.3s-.4-.2-.6-.4c-.2-.1-.3-.3-.4-.5-.1-.2-.2-.5-.2-.8 0-.3.1-.5.2-.8.1-.2.3-.5.5-.7.2-.2.5-.3.8-.5.3-.1.7-.2 1.1-.2.5 0 .9.1 1.3.2s.7.3 1 .6l-.6.7zM63.5 134.1c0-.1 0-.2.1-.3 0-.1.1-.2.2-.3.1-.1.2-.1.3-.2s.2-.1.3-.1c.1 0 .3 0 .4.1.1.1.2.1.3.2s.1.2.2.3c0 .1.1.2.1.4s0 .4-.1.7c-.1.2-.1.5-.3.7-.1.2-.3.4-.4.6s-.4.4-.6.6l-.2-.2c-.1-.1-.1-.1-.1-.2s0-.1.1-.2c0-.1.1-.1.2-.2s.1-.2.2-.3c.1-.1.1-.2.2-.4.1-.1.1-.3.1-.4h-.1c-.1 0-.2 0-.3-.1-.1 0-.2-.1-.3-.2-.1-.1-.1-.2-.2-.3-.1 0-.1-.1-.1-.2zM68.6 127.8h1c.1 0 .2 0 .3.1.1.1.1.1.1.2l1.4 4.6c0 .2.1.3.1.5s.1.3.1.5c0-.2.1-.3.1-.5s.1-.3.1-.5l1.5-4.6c0-.1.1-.1.1-.2.1 0 .1-.1.2-.1h.5c.1 0 .2 0 .2.1s.1.1.1.2l1.5 4.6c.1.2.1.3.1.5s.1.3.1.5c0-.2.1-.3.1-.5s.1-.3.1-.5l1.4-4.6c0-.1.1-.1.1-.2s.1-.1.2-.1h.9l-2.3 7.1h-1c-.1 0-.2-.1-.3-.2l-1.6-4.8c0-.1-.1-.2-.1-.3 0-.1 0-.2-.1-.3 0 .1 0 .2-.1.3s-.1.2-.1.3l-1.6 4.8c-.1.2-.1.2-.3.2h-.9l-1.9-7.1zM83.1 127.7c.5 0 1 .1 1.4.3.4.2.8.4 1.1.7s.5.7.7 1.2c.2.5.2 1 .2 1.5 0 .6-.1 1.1-.2 1.5-.2.4-.4.8-.7 1.1s-.6.6-1.1.7c-.4.2-.9.3-1.4.3s-1-.1-1.4-.3c-.4-.2-.8-.4-1.1-.7s-.5-.7-.7-1.1c-.2-.4-.2-1-.2-1.5 0-.6.1-1.1.2-1.5.2-.5.4-.8.7-1.2s.6-.6 1.1-.7c.4-.2.9-.3 1.4-.3zm0 6.4c.7 0 1.2-.2 1.6-.7.3-.5.5-1.1.5-2 0-.8-.2-1.5-.5-2s-.9-.7-1.6-.7c-.4 0-.7.1-.9.2-.3.1-.5.3-.7.5s-.3.5-.4.8c-.1.3-.1.7-.1 1.1s0 .8.1 1.1.2.6.4.8c.2.2.4.4.7.5.2.3.5.4.9.4zM88 134.9v-7.1h.7c.1 0 .2 0 .3.1.1.1.1.1.1.3l.1 1.1c.2-.5.5-.9.9-1.2.4-.3.8-.4 1.3-.4.2 0 .4 0 .5.1s.3.1.4.2l-.2.9c0 .1-.1.2-.2.2s-.2 0-.3-.1c-.1 0-.3-.1-.6-.1-.4 0-.8.1-1.1.4s-.5.6-.7 1.1v4.5H88zM94.9 124.6v6.1h.5c.1 0 .1-.1.2-.2l2.2-2.4.2-.2c.1 0 .2-.1.3-.1h1.1l-2.6 2.8-.2.2-.2.2c.1.1.2.1.2.2s.1.2.2.2l2.8 3.5h-1.1c-.1 0-.2 0-.3-.1-.1 0-.1-.1-.2-.2l-2.3-2.9c-.1-.1-.1-.2-.2-.2h-.7v3.4h-1.3v-10.3h1.4zM105 129c-.1.1-.1.2-.3.2-.1 0-.1 0-.2-.1s-.2-.1-.3-.2c-.1-.1-.3-.1-.5-.2s-.4-.1-.6-.1c-.2 0-.4 0-.6.1s-.3.1-.4.2l-.3.3c-.1.1-.1.3-.1.4 0 .2.1.3.2.5s.2.2.4.3c.2.1.4.2.6.2.2.1.4.1.7.2s.5.2.7.3l.6.3c.2.1.3.3.4.5.1.2.2.4.2.7 0 .3-.1.6-.2.9-.1.3-.3.5-.5.7-.2.2-.5.4-.8.5-.3.1-.7.2-1.1.2-.5 0-.9-.1-1.3-.2-.4-.2-.7-.4-1-.6l.3-.5c0-.1.1-.1.1-.1h.2c.1 0 .2 0 .3.1.1.1.2.1.3.2.1.1.3.2.5.2s.4.1.7.1c.2 0 .5 0 .6-.1.2-.1.3-.1.5-.3.1-.1.2-.2.3-.4.1-.1.1-.3.1-.4 0-.2-.1-.4-.2-.5s-.2-.2-.4-.3c-.2-.1-.4-.2-.6-.2-.2-.1-.4-.1-.7-.2-.2-.1-.5-.2-.7-.3s-.4-.2-.6-.4c-.2-.1-.3-.3-.4-.5-.1-.2-.2-.5-.2-.8 0-.3.1-.5.2-.8.1-.2.3-.5.5-.7.2-.2.5-.3.8-.5.3-.1.7-.2 1.1-.2.5 0 .9.1 1.3.2s.7.3 1 .6l-.6.7zM107.1 134.9v-10.3h1.2v4.2c.3-.3.6-.6 1-.8.4-.2.8-.3 1.3-.3.4 0 .7.1 1 .2.3.1.5.3.7.5.2.2.3.5.5.9.1.3.2.7.2 1.1v4.5h-1.2v-4.5c0-.5-.1-1-.4-1.2-.2-.3-.6-.4-1.1-.4-.4 0-.7.1-1 .3-.3.2-.6.4-.9.7v5.2h-1.3zM117.7 127.7c.5 0 1 .1 1.4.3.4.2.8.4 1.1.7s.5.7.7 1.2.2 1 .2 1.5c0 .6-.1 1.1-.2 1.5s-.4.8-.7 1.1-.6.6-1.1.7c-.4.2-.9.3-1.4.3s-1-.1-1.4-.3c-.4-.2-.8-.4-1.1-.7s-.5-.7-.7-1.1c-.2-.4-.2-1-.2-1.5 0-.6.1-1.1.2-1.5.2-.5.4-.8.7-1.2s.6-.6 1.1-.7c.4-.2.9-.3 1.4-.3zm0 6.4c.7 0 1.2-.2 1.6-.7.3-.5.5-1.1.5-2 0-.8-.2-1.5-.5-2s-.9-.7-1.6-.7c-.4 0-.7.1-.9.2-.3.1-.5.3-.7.5s-.3.5-.4.8c-.1.3-.1.7-.1 1.1s0 .8.1 1.1.2.6.4.8c.2.2.4.4.7.5.3.3.6.4.9.4zM122.6 137.3v-9.5h.7c.2 0 .3.1.3.3l.1.8c.3-.4.7-.7 1-.9.4-.2.8-.3 1.3-.3.4 0 .8.1 1.1.2.3.2.6.4.8.7.2.3.4.7.5 1.1.1.5.2 1 .2 1.6 0 .5-.1 1-.2 1.5s-.3.8-.6 1.2c-.3.3-.6.6-1 .8-.4.2-.8.3-1.3.3-.4 0-.8-.1-1.1-.2-.3-.1-.6-.3-.8-.6v3.1h-1zm3.2-8.6c-.4 0-.8.1-1.1.3-.3.2-.6.5-.8.8v3.4c.2.3.5.5.8.7s.6.2.9.2c.7 0 1.2-.2 1.5-.7.4-.5.5-1.1.5-2 0-.5 0-.9-.1-1.2-.1-.3-.2-.6-.4-.8-.2-.2-.3-.4-.6-.5-.2-.1-.4-.2-.7-.2zM134.4 129c-.1.1-.1.2-.3.2-.1 0-.1 0-.2-.1s-.2-.1-.3-.2c-.1-.1-.3-.1-.5-.2s-.4-.1-.6-.1c-.2 0-.4 0-.6.1s-.3.1-.4.2l-.3.3c-.1.1-.1.3-.1.4 0 .2.1.3.2.5s.2.2.4.3c.2.1.4.2.6.2.2.1.4.1.7.2s.5.2.7.3l.6.3c.2.1.3.3.4.5.1.2.2.4.2.7 0 .3-.1.6-.2.9-.1.3-.3.5-.5.7-.2.2-.5.4-.8.5-.3.1-.7.2-1.1.2-.5 0-.9-.1-1.3-.2-.4-.2-.7-.4-1-.6l.3-.5c0-.1.1-.1.1-.1h.2c.1 0 .2 0 .3.1.1.1.2.1.3.2.1.1.3.2.5.2s.4.1.7.1c.2 0 .5 0 .6-.1.2-.1.3-.1.5-.3s.2-.2.3-.4.1-.3.1-.4c0-.2-.1-.4-.2-.5s-.2-.2-.4-.3c-.2-.1-.4-.2-.6-.2-.2-.1-.4-.1-.7-.2-.2-.1-.5-.2-.7-.3-.2-.1-.4-.2-.6-.4-.2-.1-.3-.3-.4-.5-.1-.2-.2-.5-.2-.8 0-.3.1-.5.2-.8.1-.2.3-.5.5-.7.2-.2.5-.3.8-.5s.7-.2 1.1-.2c.5 0 .9.1 1.3.2s.7.3 1 .6l-.6.7zM23.7 144.5c.4 0 .8.1 1.2.2s.7.3.9.6c.3.3.5.6.6 1 .1.4.2.8.2 1.3 0 .2 0 .3-.1.4s-.1.1-.2.1h-4.7c0 .4.1.8.2 1.2.1.3.3.6.5.8.2.2.4.4.7.5.3.1.6.2.9.2.3 0 .6 0 .8-.1.2-.1.4-.2.6-.2.2-.1.3-.2.4-.2.1-.1.2-.1.3-.1.1 0 .2 0 .2.1l.4.5c-.2.2-.3.3-.6.5-.2.1-.4.3-.7.3s-.5.2-.8.2c-.3 0-.5.1-.8.1-.5 0-.9-.1-1.4-.2-.4-.2-.8-.4-1.1-.7-.3-.3-.5-.7-.7-1.2-.2-.5-.3-1-.3-1.6 0-.5.1-1 .2-1.4.2-.4.4-.8.7-1.1.3-.3.6-.6 1-.7s1.1-.5 1.6-.5zm0 1c-.6 0-1.1.2-1.4.5s-.6.8-.6 1.4h3.9c0-.3 0-.6-.1-.8l-.3-.6c-.2-.2-.3-.3-.6-.4-.3-.1-.6-.1-.9-.1zM33.7 144.5c.4 0 .8.1 1.2.2s.7.3.9.6c.3.3.5.6.6 1 .1.4.2.8.2 1.3 0 .2 0 .3-.1.4s-.1.1-.2.1h-4.7c0 .4.1.8.2 1.2.1.3.3.6.5.8.2.2.4.4.7.5.3.1.6.2.9.2.3 0 .6 0 .8-.1.2-.1.4-.2.6-.2.2-.1.3-.2.4-.2.1-.1.2-.1.3-.1.1 0 .2 0 .2.1l.4.5c-.2.2-.3.3-.6.5-.2.1-.4.3-.7.3s-.5.2-.8.2c-.3 0-.5.1-.8.1-.5 0-.9-.1-1.4-.2-.4-.2-.8-.4-1.1-.7-.3-.3-.5-.7-.7-1.2-.2-.5-.3-1-.3-1.6 0-.5.1-1 .2-1.4.2-.4.4-.8.7-1.1.3-.3.6-.6 1-.7s1.1-.5 1.6-.5zm.1 1c-.6 0-1.1.2-1.4.5s-.6.8-.6 1.4h3.9c0-.3 0-.6-.1-.8l-.3-.6c-.2-.2-.3-.3-.6-.4-.4-.1-.7-.1-.9-.1zM37.2 144.6h1c.1 0 .2 0 .2.1.1.1.1.1.1.2l1.8 4.6c.1.2.1.3.2.5 0 .2.1.3.1.5 0-.2.1-.3.1-.5s.1-.3.2-.5l1.8-4.6c0-.1.1-.1.1-.2s.1-.1.2-.1h1l-2.9 7.1H40l-2.8-7.1zM47.9 144.5c.4 0 .8.1 1.2.2s.7.3.9.6c.3.3.5.6.6 1 .1.4.2.8.2 1.3 0 .2 0 .3-.1.4s-.1.1-.2.1h-4.7c0 .4.1.8.2 1.2.1.3.3.6.5.8.2.2.4.4.7.5.3.1.6.2.9.2.3 0 .6 0 .8-.1.2-.1.4-.2.6-.2.2-.1.3-.2.4-.2.1-.1.2-.1.3-.1.1 0 .2 0 .2.1l.4.5c-.2.2-.3.3-.6.5-.2.1-.4.3-.7.3s-.5.2-.8.2c-.3 0-.5.1-.8.1-.5 0-.9-.1-1.4-.2-.4-.2-.8-.4-1.1-.7-.3-.3-.5-.7-.7-1.2-.2-.5-.3-1-.3-1.6 0-.5.1-1 .2-1.4.2-.4.4-.8.7-1.1.3-.3.6-.6 1-.7s1.1-.5 1.6-.5zm0 1c-.6 0-1.1.2-1.4.5s-.6.8-.6 1.4h3.9c0-.3 0-.6-.1-.8l-.3-.6c-.2-.2-.3-.3-.6-.4-.4-.1-.6-.1-.9-.1zM52.4 151.7v-7.1h.7c.2 0 .3.1.3.3l.1.8c.3-.3.7-.6 1-.8s.8-.3 1.3-.3c.4 0 .7.1 1 .2.3.1.5.3.7.5.2.2.3.5.5.9.1.3.2.7.2 1.1v4.5H57v-4.5c0-.5-.1-1-.4-1.2-.2-.3-.6-.4-1.1-.4-.4 0-.7.1-1 .3-.3.2-.6.4-.9.7v5.2h-1.2zM62.3 151.9c-.6 0-1-.2-1.3-.5-.3-.3-.5-.8-.5-1.4v-4.3h-.9c-.1 0-.1 0-.2-.1-.1 0-.1-.1-.1-.2v-.5l1.2-.1.3-2.2c0-.1 0-.1.1-.2.1 0 .1-.1.2-.1h.6v2.4h2v.9h-2v4.3c0 .3.1.5.2.7.1.1.3.2.6.2.1 0 .2 0 .3-.1.1 0 .2-.1.2-.1s.1-.1.2-.1l.1-.1c.1 0 .1 0 .2.1l.4.6c-.2.2-.5.4-.8.5s-.5.3-.8.3zM68.3 144.5c.5 0 1 .1 1.4.3.4.2.8.4 1.1.7s.5.7.7 1.2c.2.5.2 1 .2 1.5 0 .6-.1 1.1-.2 1.5-.2.4-.4.8-.7 1.1s-.6.6-1.1.7c-.4.2-.9.3-1.4.3s-1-.1-1.4-.3c-.4-.2-.8-.4-1.1-.7s-.5-.7-.7-1.1c-.2-.4-.2-1-.2-1.5 0-.6.1-1.1.2-1.5.2-.5.4-.8.7-1.2s.6-.6 1.1-.7c.4-.2.9-.3 1.4-.3zm0 6.4c.7 0 1.2-.2 1.6-.7.3-.5.5-1.1.5-2 0-.8-.2-1.5-.5-2s-.9-.7-1.6-.7c-.4 0-.7.1-.9.2-.3.1-.5.3-.7.5s-.3.5-.4.8c-.1.3-.1.7-.1 1.1s0 .8.1 1.1.2.6.4.8c.2.2.4.4.7.5.2.3.5.4.9.4zM77.2 145.8c-.1.1-.1.2-.3.2-.1 0-.1 0-.2-.1s-.2-.1-.3-.2c-.1-.1-.3-.1-.5-.2s-.4-.1-.6-.1c-.2 0-.4 0-.6.1s-.3.1-.4.2l-.3.3c-.1.1-.1.3-.1.4 0 .2.1.3.2.5s.2.2.4.3c.2.1.4.2.6.2.2.1.4.1.7.2s.5.2.7.3l.6.3c.2.1.3.3.4.5.1.2.2.4.2.7 0 .3-.1.6-.2.9-.1.3-.3.5-.5.7-.2.2-.5.4-.8.5-.3.1-.7.2-1.1.2-.5 0-.9-.1-1.3-.2-.4-.2-.7-.4-1-.6l.3-.5c0-.1.1-.1.1-.1h.2c.1 0 .2 0 .3.1.1.1.2.1.3.2.1.1.3.2.5.2s.4.1.7.1c.2 0 .5 0 .6-.1.2-.1.3-.1.5-.3.1-.1.2-.2.3-.4.1-.1.1-.3.1-.4 0-.2-.1-.4-.2-.5s-.2-.2-.4-.3c-.2-.1-.4-.2-.6-.2-.2-.1-.4-.1-.7-.2-.2-.1-.5-.2-.7-.3s-.4-.2-.6-.4c-.2-.1-.3-.3-.4-.5-.1-.2-.2-.5-.2-.8 0-.3.1-.5.2-.8.1-.2.3-.5.5-.7.2-.2.5-.3.8-.5.3-.1.7-.2 1.1-.2.5 0 .9.1 1.3.2s.7.3 1 .6l-.6.7zM87 151.7c-.2 0-.3-.1-.3-.3l-.1-.9c-.3.4-.6.7-1 .9s-.8.3-1.3.3c-.4 0-.8-.1-1.1-.2-.3-.2-.6-.4-.8-.7-.2-.3-.4-.7-.5-1.1-.1-.5-.2-1-.2-1.6 0-.5.1-1 .2-1.5s.3-.8.6-1.2c.3-.3.6-.6 1-.8.4-.2.8-.3 1.3-.3.4 0 .8.1 1.1.2.3.1.6.4.8.6v-3.9h1.2v10.3H87zm-2.5-.9c.4 0 .8-.1 1.1-.3.3-.2.6-.5.8-.8v-3.4c-.2-.3-.5-.5-.8-.6-.3-.1-.6-.2-.9-.2-.7 0-1.2.2-1.5.7-.4.5-.5 1.1-.5 2 0 .5 0 .9.1 1.2.1.3.2.6.4.8.2.2.3.4.6.5.2.1.4.1.7.1zM92.6 144.5c.4 0 .8.1 1.2.2s.7.3.9.6c.3.3.5.6.6 1 .1.4.2.8.2 1.3 0 .2 0 .3-.1.4s-.1.1-.2.1h-4.7c0 .4.1.8.2 1.2.1.3.3.6.5.8.2.2.4.4.7.5.3.1.6.2.9.2.3 0 .6 0 .8-.1.2-.1.4-.2.6-.2.2-.1.3-.2.4-.2.1-.1.2-.1.3-.1.1 0 .2 0 .2.1l.4.5c-.2.2-.3.3-.6.5-.2.1-.4.3-.7.3s-.5.2-.8.2c-.3 0-.5.1-.8.1-.5 0-.9-.1-1.4-.2-.4-.2-.8-.4-1.1-.7-.3-.3-.5-.7-.7-1.2-.2-.5-.3-1-.3-1.6 0-.5.1-1 .2-1.4.2-.4.4-.8.7-1.1.3-.3.6-.6 1-.7s1.1-.5 1.6-.5zm0 1c-.6 0-1.1.2-1.4.5s-.6.8-.6 1.4h3.9c0-.3 0-.6-.1-.8l-.3-.6c-.2-.2-.3-.3-.6-.4-.3-.1-.6-.1-.9-.1zM102 151.9c-.6 0-1-.2-1.3-.5-.3-.3-.5-.8-.5-1.4v-4.3h-.9c-.1 0-.1 0-.2-.1-.1 0-.1-.1-.1-.2v-.5l1.2-.1.3-2.2c0-.1 0-.1.1-.2.1 0 .1-.1.2-.1h.6v2.4h2v.9h-2v4.3c0 .3.1.5.2.7.1.1.3.2.6.2.1 0 .2 0 .3-.1.1 0 .2-.1.2-.1s.1-.1.2-.1l.1-.1c.1 0 .1 0 .2.1l.4.6c-.2.2-.5.4-.8.5s-.5.3-.8.3zM107.9 144.5c.4 0 .8.1 1.2.2s.7.3.9.6c.3.3.5.6.6 1 .1.4.2.8.2 1.3 0 .2 0 .3-.1.4s-.1.1-.2.1h-4.7c0 .4.1.8.2 1.2.1.3.3.6.5.8.2.2.4.4.7.5.3.1.6.2.9.2.3 0 .6 0 .8-.1.2-.1.4-.2.6-.2.2-.1.3-.2.4-.2.1-.1.2-.1.3-.1.1 0 .2 0 .2.1l.4.5c-.2.2-.3.3-.6.5-.2.1-.4.3-.7.3s-.5.2-.8.2c-.3 0-.5.1-.8.1-.5 0-.9-.1-1.4-.2-.4-.2-.8-.4-1.1-.7-.3-.3-.5-.7-.7-1.2-.2-.5-.3-1-.3-1.6 0-.5.1-1 .2-1.4.2-.4.4-.8.7-1.1.3-.3.6-.6 1-.7s1-.5 1.6-.5zm0 1c-.6 0-1.1.2-1.4.5s-.6.8-.6 1.4h3.9c0-.3 0-.6-.1-.8l-.3-.6c-.2-.2-.3-.3-.6-.4-.4-.1-.6-.1-.9-.1zM117.2 145.9c0 .1-.1.1-.1.1h-.2c-.1 0-.1 0-.2-.1s-.2-.1-.3-.2c-.1-.1-.3-.1-.5-.2s-.4-.1-.7-.1c-.3 0-.7.1-.9.2-.3.1-.5.3-.7.5s-.3.5-.4.8-.1.7-.1 1.1c0 .4 0 .8.1 1.1.1.3.2.6.4.8s.4.4.6.5c.3.1.5.2.9.2.3 0 .6 0 .7-.1.2-.1.4-.2.5-.2.1-.1.2-.2.3-.2.1-.1.2-.1.3-.1.1 0 .2 0 .2.1l.4.5c-.3.4-.7.7-1.2.8-.5.2-.9.3-1.5.3-.4 0-.9-.1-1.2-.2-.4-.2-.7-.4-1-.7-.3-.3-.5-.7-.7-1.1-.2-.5-.2-1-.2-1.5s.1-1 .2-1.5c.1-.4.4-.8.6-1.2.3-.3.6-.6 1-.8.4-.2.9-.3 1.4-.3.5 0 .9.1 1.3.2.4.2.7.4 1 .7v.6zM118.9 151.7v-7.1h.7c.2 0 .3.1.3.3l.1.8c.3-.3.7-.6 1-.8.4-.2.8-.3 1.3-.3.4 0 .7.1 1 .2.3.1.5.3.7.5.2.2.3.5.5.9.1.3.2.7.2 1.1v4.5h-1.2v-4.5c0-.5-.1-1-.4-1.2-.2-.3-.6-.4-1.1-.4-.4 0-.7.1-1 .3-.3.2-.6.4-.9.7v5.2h-1.2zM129.6 144.5c.5 0 1 .1 1.4.3.4.2.8.4 1.1.7.3.3.5.7.7 1.2s.2 1 .2 1.5c0 .6-.1 1.1-.2 1.5s-.4.8-.7 1.1c-.3.3-.6.6-1.1.7-.4.2-.9.3-1.4.3-.5 0-1-.1-1.4-.3-.4-.2-.8-.4-1.1-.7-.3-.3-.5-.7-.7-1.1-.2-.4-.2-1-.2-1.5 0-.6.1-1.1.2-1.5.2-.5.4-.8.7-1.2.3-.3.7-.6 1.1-.7.4-.2.9-.3 1.4-.3zm0 6.4c.7 0 1.2-.2 1.6-.7.3-.5.5-1.1.5-2 0-.8-.2-1.5-.5-2s-.9-.7-1.6-.7c-.4 0-.7.1-.9.2-.3.1-.5.3-.7.5-.2.2-.3.5-.4.8-.1.3-.1.7-.1 1.1s0 .8.1 1.1c.1.3.2.6.4.8.2.2.4.4.7.5.2.3.5.4.9.4zM135.9 141.4v10.3h-1.2v-10.3h1.2zM140.9 144.5c.5 0 1 .1 1.4.3.4.2.8.4 1.1.7.3.3.5.7.7 1.2s.2 1 .2 1.5c0 .6-.1 1.1-.2 1.5s-.4.8-.7 1.1c-.3.3-.6.6-1.1.7-.4.2-.9.3-1.4.3s-1-.1-1.4-.3c-.4-.2-.8-.4-1.1-.7-.3-.3-.5-.7-.7-1.1s-.2-1-.2-1.5c0-.6.1-1.1.2-1.5s.4-.8.7-1.2c.3-.3.6-.6 1.1-.7.5-.2.9-.3 1.4-.3zm0 6.4c.7 0 1.2-.2 1.6-.7.3-.5.5-1.1.5-2 0-.8-.2-1.5-.5-2s-.9-.7-1.6-.7c-.4 0-.7.1-.9.2s-.5.3-.7.5c-.2.2-.3.5-.4.8-.1.3-.1.7-.1 1.1s0 .8.1 1.1.2.6.4.8c.2.2.4.4.7.5.3.3.6.4.9.4zM148.2 144.5c.3 0 .6 0 .9.1.3.1.5.2.7.3h1.9v.5c0 .2-.1.3-.3.3l-.8.1c.2.3.2.6.2 1 0 .3-.1.7-.2.9s-.3.5-.6.7c-.2.2-.5.4-.8.5s-.7.2-1.1.2c-.3 0-.6 0-.9-.1-.2.1-.3.2-.3.3-.1.1-.1.2-.1.3 0 .2.1.3.2.4.1.1.3.2.5.2s.5.1.8.1h.9c.3 0 .6 0 .9.1.3.1.5.1.8.3.2.1.4.3.5.5.1.2.2.5.2.8 0 .3-.1.6-.2.9s-.4.5-.7.8-.6.4-1 .5c-.4.1-.9.2-1.4.2-.5 0-1-.1-1.4-.2-.4-.1-.7-.2-1-.4-.3-.2-.4-.4-.6-.6-.1-.2-.2-.5-.2-.7 0-.4.1-.6.3-.9.2-.2.5-.4.9-.6-.2-.1-.4-.2-.5-.4-.1-.2-.2-.4-.2-.6 0-.1 0-.2.1-.3s.1-.2.2-.3l.3-.3c.1-.1.2-.2.4-.3-.3-.2-.6-.5-.8-.8-.2-.3-.3-.7-.3-1.1 0-.3.1-.7.2-.9s.3-.5.6-.7.5-.4.8-.5c.4-.2.8-.3 1.1-.3zm2.3 7.6c0-.2 0-.3-.1-.4-.1-.1-.2-.2-.4-.3s-.4-.1-.6-.1H148c-.2 0-.5 0-.7-.1-.3.1-.5.3-.6.5-.2.2-.2.4-.2.7 0 .2 0 .3.1.4.1.1.2.3.4.4.2.1.4.2.6.2.3.1.6.1.9.1.3 0 .6 0 .9-.1.3-.1.5-.2.7-.3.2-.1.3-.2.4-.4-.1-.2 0-.4 0-.6zm-2.3-3.8c.3 0 .5 0 .7-.1.2-.1.4-.2.5-.3.1-.1.2-.3.3-.5s.1-.4.1-.6c0-.4-.1-.8-.4-1s-.6-.4-1.2-.4c-.5 0-.9.1-1.1.4s-.4.6-.4 1c0 .2 0 .4.1.6.1.2.2.3.3.5s.3.2.5.3c.2 0 .4.1.6.1zM154.7 142.4c0 .1 0 .2-.1.3 0 .1-.1.2-.2.3-.1.1-.2.1-.3.2s-.2.1-.3.1-.2 0-.3-.1-.2-.1-.3-.2c-.1-.1-.1-.2-.2-.3 0-.1-.1-.2-.1-.3 0-.1 0-.2.1-.3 0-.1.1-.2.2-.3.1-.1.2-.1.3-.2.1 0 .2-.1.3-.1s.2 0 .3.1c.1 0 .2.1.3.2.1.1.1.2.2.3.1.1.1.2.1.3zm-.3 2.2v7.1h-1.2v-7.1h1.2zM161.8 151.7h-.6c-.1 0-.2 0-.3-.1-.1 0-.1-.1-.1-.2l-.1-.7c-.2.2-.4.3-.5.5l-.6.3c-.2.1-.4.2-.6.2-.2 0-.5.1-.7.1-.3 0-.5 0-.8-.1s-.4-.2-.6-.3c-.2-.2-.3-.3-.4-.6-.1-.2-.2-.5-.2-.8 0-.3.1-.6.2-.8s.4-.5.7-.7c.3-.2.8-.4 1.3-.5.6-.1 1.2-.2 2-.2v-.6c0-.6-.1-1-.4-1.3-.2-.3-.6-.4-1-.4-.3 0-.6 0-.8.1-.2.1-.4.2-.5.3-.2.1-.3.2-.4.3s-.2.1-.3.1c-.1 0-.2 0-.2-.1-.1 0-.1-.1-.2-.2l-.2-.4c.4-.4.8-.7 1.3-.8.5-.2 1-.3 1.5-.3.4 0 .7.1 1.1.2.3.1.6.3.8.5.2.2.4.5.5.8s.2.7.2 1.1v4.6zm-3.2-.7c.2 0 .4 0 .6-.1.2 0 .4-.1.5-.2.2-.1.3-.2.5-.3.1-.1.3-.2.4-.4v-1.5c-.6 0-1.1 0-1.5.1-.4.1-.7.2-1 .3-.3.1-.4.3-.5.4-.1.2-.2.3-.2.5s0 .3.1.5c.1.1.1.2.2.3.1.1.2.2.4.2.2.2.3.2.5.2z"/></g></g></svg>