<svg version="1.1" xmlns="http://www.w3.org/2000/svg" x="0" y="0" width="240" height="90" viewBox="0 0 240 90" xml:space="preserve"><path fill="#8E5D9E" d="M0 0h240v90H0V0z"/><path fill="none" stroke="#FFF" stroke-width="3.632" d="M27.4 42.9h52.3v17.9H27.4V42.9z"/><g fill="#FFF"><path d="M40.6 34.7h25.7L53.5 51.2 40.6 34.7z"/><path d="M49.2 27h8.3v12.8h-8.3V27z"/></g><text transform="translate(106.834 29.167)"><tspan x="0" y="0" fill="#FFF" font-family="'Lato-Regular'" font-size="17">Ebook g</tspan><tspan x="59.2" y="0" fill="#FFF" font-family="'Lato-Regular'" font-size="17">r</tspan><tspan x="65.7" y="0" fill="#FFF" font-family="'Lato-Regular'" font-size="17">atuito</tspan><tspan x="0" y="20.4" fill="#FFF" font-family="'Lato-Regular'" font-size="17">Bootst</tspan><tspan x="50" y="20.4" fill="#FFF" font-family="'Lato-Regular'" font-size="17">r</tspan><tspan x="56.5" y="20.4" fill="#FFF" font-family="'Lato-Regular'" font-size="17">ap 3.3.5</tspan><tspan x="0" y="40.8" fill="#FFF" font-family="'Lato-Regular'" font-size="17">do Maujor</tspan></text><g><path fill="#E23B45" d="M0 0h240v90H0V0z"/><path fill="none" stroke="#FFF" stroke-width="3.632" d="M27.4 42.9h52.3v17.9H27.4V42.9z"/><g fill="#FFF"><path d="M40.6 34.7h25.7L53.5 51.2 40.6 34.7z"/><path d="M49.2 27.1h8.3v12.8h-8.3V27.1z"/></g><g fill="#FFF"><path d="M115.8 16.9v1.8h-5.4v3.4h4.3v1.8h-4.3v3.5h5.4v1.8H108V16.9h7.8zM117.7 29.2V16.5h2.1v5c.3-.4.7-.7 1.2-.9.4-.2.9-.3 1.5-.3.5 0 .9.1 1.3.3.4.2.7.5 1 .9s.5.8.7 1.4.2 1.2.2 1.9-.1 1.3-.3 1.8c-.2.6-.4 1-.8 1.4-.3.4-.7.7-1.2 1s-1 .3-1.6.3c-.3 0-.5 0-.7-.1s-.4-.1-.6-.2c-.2-.1-.3-.2-.5-.4-.2-.1-.3-.3-.4-.5l-.1.6c0 .1-.1.3-.2.3s-.2.1-.3.1h-1.3zm4.1-7.3c-.4 0-.8.1-1.1.3-.3.2-.6.4-.9.8v3.9c.2.3.5.5.8.6.3.1.6.2.9.2.3 0 .6-.1.9-.2.3-.1.5-.3.7-.5.2-.2.3-.6.4-.9.1-.4.1-.8.1-1.3s0-.9-.1-1.3-.2-.6-.4-.9c-.2-.2-.3-.4-.6-.5-.2-.1-.4-.2-.7-.2zM131.1 20.3c.7 0 1.2.1 1.8.3.5.2 1 .5 1.4.9.4.4.7.9.9 1.4.2.6.3 1.2.3 1.9s-.1 1.3-.3 1.9c-.2.6-.5 1-.9 1.4-.4.4-.8.7-1.4.9-.5.2-1.1.3-1.8.3s-1.2-.1-1.8-.3c-.5-.2-1-.5-1.4-.9s-.7-.9-.9-1.4c-.2-.6-.3-1.2-.3-1.9s.1-1.3.3-1.9c.2-.6.5-1 .9-1.4.4-.4.8-.7 1.4-.9.6-.2 1.1-.3 1.8-.3zm0 7.4c.7 0 1.3-.2 1.6-.7.3-.5.5-1.2.5-2.1s-.2-1.7-.5-2.2c-.3-.5-.9-.7-1.6-.7-.7 0-1.3.2-1.6.7s-.5 1.2-.5 2.1c0 .9.2 1.6.5 2.1s.9.8 1.6.8zM140.8 20.3c.7 0 1.2.1 1.8.3.5.2 1 .5 1.4.9.4.4.7.9.9 1.4.2.6.3 1.2.3 1.9s-.1 1.3-.3 1.9c-.2.6-.5 1-.9 1.4s-.8.7-1.4.9c-.5.2-1.1.3-1.8.3s-1.2-.1-1.8-.3c-.5-.2-1-.5-1.4-.9s-.7-.9-.9-1.4c-.2-.6-.3-1.2-.3-1.9s.1-1.3.3-1.9c.2-.6.5-1 .9-1.4.4-.4.8-.7 1.4-.9.5-.2 1.1-.3 1.8-.3zm0 7.4c.7 0 1.3-.2 1.6-.7s.5-1.2.5-2.1-.2-1.7-.5-2.2-.9-.7-1.6-.7c-.7 0-1.3.2-1.6.7-.4.5-.5 1.2-.5 2.1 0 .9.2 1.6.5 2.1s.8.8 1.6.8zM148.8 16.5v7.2h.4c.1 0 .3 0 .3-.1.1 0 .2-.1.3-.2l2.2-2.7.3-.3c.1-.1.2-.1.4-.1h1.9l-2.7 3.2-.3.3-.3.3.3.3c.1.1.2.2.3.4l2.9 4.2h-1.9c-.2 0-.3 0-.4-.1l-.3-.3-2.2-3.3-.3-.3c-.1 0-.2-.1-.4-.1h-.5v4h-2.1V16.5h2.1zM162.4 20.3c.4 0 .7 0 1.1.1l.9.3h2.5v.8c0 .1 0 .2-.1.3-.1.1-.2.1-.3.2l-.8.1c.1.1.1.3.1.5v.5c0 .4-.1.8-.3 1.2-.2.3-.4.6-.7.9-.3.2-.7.4-1.1.6s-.9.2-1.4.2c-.3 0-.6 0-1-.1-.3.2-.4.4-.4.6 0 .2.1.3.2.4.2.1.4.1.6.2.3 0 .6.1.9.1h1c.4 0 .7.1 1 .1l.9.3c.3.2.5.4.6.6.2.3.2.6.2 1s-.1.8-.3 1.1c-.2.4-.5.7-.8 1-.4.3-.8.5-1.3.7-.5.2-1.1.3-1.8.3s-1.2-.1-1.7-.2-.9-.3-1.2-.5c-.3-.2-.6-.5-.7-.7s-.2-.6-.2-.9c0-.4.1-.8.4-1 .2-.3.6-.5 1-.7-.2-.1-.4-.3-.5-.5-.1-.2-.2-.5-.2-.8 0-.1 0-.3.1-.4 0-.1.1-.3.2-.4s.2-.3.4-.4c.1-.1.3-.2.5-.3-.4-.2-.8-.6-1-1-.3-.4-.4-.9-.4-1.4 0-.4.1-.8.3-1.2s.4-.6.7-.9c.3-.2.7-.4 1.1-.6.5 0 1-.1 1.5-.1zm2.3 9.2c0-.2-.1-.3-.2-.4-.1-.1-.2-.2-.4-.3-.2-.1-.4-.1-.6-.1H162c-.3 0-.6 0-.8-.1-.2.1-.4.3-.6.5s-.2.4-.2.6c0 .2 0 .3.1.4.1.1.2.2.4.3.2.1.4.2.7.2.3.1.6.1 1 .1s.7 0 1-.1.5-.1.7-.3c.2-.1.3-.2.4-.4s0-.2 0-.4zm-2.3-4.9c.3 0 .5 0 .7-.1.2-.1.4-.2.5-.3.1-.1.2-.3.3-.5.1-.2.1-.4.1-.6 0-.4-.1-.8-.4-1s-.6-.4-1.2-.4-.9.1-1.2.4-.4.6-.4 1c0 .2 0 .4.1.6.1.2.2.3.3.5.1.1.3.2.5.3.2.1.4.1.7.1zM168.2 29.2v-8.7h1.2c.2 0 .4 0 .5.1.1.1.1.2.2.4l.1 1.1c.3-.5.7-1 1.1-1.3s.9-.5 1.4-.5c.4 0 .8.1 1.1.3l-.3 1.6c0 .1-.1.2-.1.2-.1 0-.1.1-.2.1s-.2 0-.3-.1c-.1 0-.3-.1-.6-.1-.4 0-.8.1-1.1.4-.3.2-.6.6-.8 1.1v5.4h-2.2zM181.7 29.2h-.9c-.2 0-.4 0-.5-.1s-.2-.2-.3-.4l-.2-.6c-.2.2-.4.4-.7.5-.2.1-.4.3-.7.4-.2.1-.5.2-.7.2s-.5.1-.8.1c-.4 0-.7 0-1-.1-.3-.1-.6-.2-.8-.4-.2-.2-.4-.4-.5-.7-.1-.3-.2-.6-.2-1 0-.3.1-.7.3-1 .2-.3.5-.6.9-.9s.9-.5 1.6-.6c.7-.2 1.5-.3 2.5-.3v-.5c0-.6-.1-1-.4-1.3-.2-.3-.6-.4-1.1-.4-.3 0-.6 0-.9.1l-.6.3c-.2.1-.3.2-.5.3s-.3.1-.5.1c-.1 0-.3 0-.4-.1-.1-.1-.2-.2-.2-.3l-.4-.7c1-.9 2.2-1.4 3.6-1.4.5 0 1 .1 1.4.3.4.2.7.4 1 .7.3.3.5.7.6 1.1.1.4.2.9.2 1.4v5.3zm-4.1-1.3c.2 0 .4 0 .6-.1s.4-.1.5-.2.3-.2.5-.3.3-.2.5-.4v-1.5c-.6 0-1.1 0-1.5.1-.4.1-.7.2-1 .3-.2.1-.4.3-.5.4-.1.2-.2.3-.2.5 0 .4.1.6.3.8.2.3.5.4.8.4zM186.6 29.3c-.8 0-1.3-.2-1.7-.6-.4-.4-.6-1-.6-1.8V22h-.9c-.1 0-.2 0-.3-.1-.1-.1-.1-.2-.1-.3v-.8l1.4-.2.4-2.4c0-.1.1-.2.2-.3.1-.1.2-.1.3-.1h1.1v2.7h2.3V22h-2.3v4.7c0 .3.1.5.2.6s.3.2.5.2h.3c.1 0 .2-.1.2-.1.1 0 .1-.1.2-.1h.4l.1.1.6 1c-.3.3-.7.4-1.1.6-.3.2-.8.3-1.2.3zM192.3 20.4V26c0 .5.1.9.4 1.2s.6.4 1.1.4c.4 0 .7-.1 1-.2.3-.2.6-.4.9-.7v-6.3h2.1v8.7h-1.3c-.3 0-.4-.1-.5-.4l-.1-.7c-.2.2-.4.3-.6.5-.2.2-.4.3-.6.4-.2.1-.5.2-.7.2s-.5.1-.8.1c-.5 0-.9-.1-1.3-.2-.4-.2-.7-.4-.9-.7-.2-.3-.4-.6-.6-1-.1-.4-.2-.9-.2-1.3v-5.5h2.1zM202.6 17.9c0 .2 0 .4-.1.5-.1.2-.2.3-.3.4-.1.1-.3.2-.4.3-.2.1-.3.1-.5.1s-.4 0-.5-.1c-.2-.1-.3-.2-.4-.3s-.2-.3-.3-.4c-.1-.2-.1-.3-.1-.5s0-.4.1-.5c.1-.2.2-.3.3-.4s.3-.2.4-.3c.2-.1.3-.1.5-.1s.4 0 .5.1c.2.1.3.2.4.3.1.1.2.3.3.4 0 .1.1.3.1.5zm-.4 2.5v8.7h-2.1v-8.7h2.1zM207.5 29.3c-.8 0-1.3-.2-1.7-.6s-.6-1-.6-1.8V22h-.9c-.1 0-.2 0-.3-.1-.1-.1-.1-.2-.1-.3v-.8l1.4-.2.4-2.4c0-.1.1-.2.2-.3.1-.1.2-.1.3-.1h1.1v2.7h2.3V22h-2.3v4.7c0 .3.1.5.2.6.1.2.3.2.5.2h.3c.1 0 .2-.1.2-.1.1 0 .1-.1.2-.1h.4c.1 0 .1.1.1.1l.6 1c-.3.3-.7.4-1.1.6s-.8.3-1.2.3zM214.9 20.3c.7 0 1.2.1 1.8.3.5.2 1 .5 1.4.9.4.4.7.9.9 1.4.2.6.3 1.2.3 1.9s-.1 1.3-.3 1.9c-.2.6-.5 1-.9 1.4-.4.4-.8.7-1.4.9-.5.2-1.1.3-1.8.3s-1.2-.1-1.8-.3c-.5-.2-1-.5-1.4-.9s-.7-.9-.9-1.4c-.2-.6-.3-1.2-.3-1.9s.1-1.3.3-1.9c.2-.6.5-1 .9-1.4.4-.4.8-.7 1.4-.9.6-.2 1.2-.3 1.8-.3zm0 7.4c.7 0 1.3-.2 1.6-.7.3-.5.5-1.2.5-2.1s-.2-1.7-.5-2.2c-.3-.5-.9-.7-1.6-.7-.7 0-1.3.2-1.6.7s-.5 1.2-.5 2.1c0 .9.2 1.6.5 2.1s.9.8 1.6.8zM108.1 49.6V37.3h4.2c.8 0 1.5.1 2.1.2.6.2 1 .4 1.4.7.4.3.6.6.8 1s.3.9.3 1.4c0 .3 0 .6-.1.8s-.2.5-.4.7c-.2.2-.4.4-.7.6-.3.2-.6.3-1 .5 1.7.4 2.5 1.3 2.5 2.7 0 .5-.1 1-.3 1.4-.2.4-.5.8-.9 1.1-.4.3-.8.6-1.4.8-.6.2-1.2.3-1.9.3h-4.6zm2.3-7h1.8c.8 0 1.4-.1 1.8-.4.4-.3.6-.7.6-1.4 0-.6-.2-1.1-.5-1.4-.4-.3-.9-.4-1.7-.4h-2v3.6zm0 1.6v3.6h2.3c.4 0 .8-.1 1.1-.2.3-.1.5-.2.7-.4s.3-.4.4-.6c.1-.2.1-.5.1-.7 0-.3 0-.5-.1-.7s-.2-.4-.4-.5-.4-.3-.7-.3c-.3-.1-.6-.1-1-.1h-2.4zM122.8 40.7c.7 0 1.2.1 1.8.3.5.2 1 .5 1.4.9.4.4.7.9.9 1.4.2.6.3 1.2.3 1.9s-.1 1.3-.3 1.9c-.2.6-.5 1-.9 1.4s-.8.7-1.4.9c-.5.2-1.1.3-1.8.3s-1.2-.1-1.8-.3c-.5-.2-1-.5-1.4-.9s-.7-.9-.9-1.4c-.2-.6-.3-1.2-.3-1.9s.1-1.3.3-1.9c.2-.6.5-1 .9-1.4.4-.4.8-.7 1.4-.9.5-.2 1.1-.3 1.8-.3zm0 7.4c.7 0 1.3-.2 1.6-.7s.5-1.2.5-2.1-.2-1.7-.5-2.2-.9-.7-1.6-.7c-.7 0-1.3.2-1.6.7-.4.5-.5 1.2-.5 2.1 0 .9.2 1.6.5 2.1s.8.8 1.6.8zM132.4 40.7c.7 0 1.2.1 1.8.3.5.2 1 .5 1.4.9.4.4.7.9.9 1.4.2.6.3 1.2.3 1.9s-.1 1.3-.3 1.9c-.2.6-.5 1-.9 1.4-.4.4-.8.7-1.4.9-.5.2-1.1.3-1.8.3s-1.2-.1-1.8-.3c-.5-.2-1-.5-1.4-.9s-.7-.9-.9-1.4c-.2-.6-.3-1.2-.3-1.9s.1-1.3.3-1.9c.2-.6.5-1 .9-1.4.4-.4.8-.7 1.4-.9.6-.2 1.2-.3 1.8-.3zm0 7.4c.7 0 1.3-.2 1.6-.7.3-.5.5-1.2.5-2.1s-.2-1.7-.5-2.2c-.3-.5-.9-.7-1.6-.7-.7 0-1.3.2-1.6.7-.4.5-.5 1.2-.5 2.1 0 .9.2 1.6.5 2.1s.9.8 1.6.8zM141.2 49.7c-.8 0-1.3-.2-1.7-.6-.4-.4-.6-1-.6-1.8v-4.9h-.9c-.1 0-.2 0-.3-.1-.1-.1-.1-.2-.1-.3v-.8l1.4-.2.4-2.4c0-.1.1-.2.2-.3.1-.1.2-.1.3-.1h1.1v2.7h2.3v1.5H141v4.7c0 .3.1.5.2.6.1.2.3.2.5.2h.3c.1 0 .2-.1.2-.1.1 0 .1-.1.2-.1h.4l.1.1.6 1c-.3.3-.7.4-1.1.6s-.8.3-1.2.3zM150.1 42.5c-.1.1-.1.2-.2.2s-.1.1-.2.1-.2 0-.3-.1-.2-.1-.4-.2-.3-.1-.5-.2-.4-.1-.7-.1c-.4 0-.7.1-1 .3s-.4.4-.4.7c0 .2.1.3.2.5.1.1.3.2.5.3s.4.2.7.3c.3.1.5.2.8.3.3.1.5.2.8.3s.5.3.7.4c.2.2.4.4.5.6.1.2.2.5.2.9s-.1.8-.2 1.2c-.2.4-.4.7-.7.9s-.7.5-1.1.6-.9.2-1.5.2c-.3 0-.6 0-.9-.1-.3-.1-.6-.1-.8-.2s-.5-.2-.7-.3c-.2-.1-.4-.3-.6-.4l.5-.8c.1-.1.1-.2.2-.2s.2-.1.3-.1c.1 0 .3 0 .4.1.1.1.2.2.4.2s.3.2.5.2c.2.1.5.1.8.1.2 0 .5 0 .6-.1.2-.1.3-.1.4-.2l.3-.3c.1-.1.1-.3.1-.4 0-.2-.1-.4-.2-.5-.1-.1-.3-.2-.5-.3-.2-.1-.4-.2-.7-.3s-.5-.2-.8-.3c-.3-.1-.5-.2-.8-.3s-.5-.3-.7-.5c-.2-.2-.4-.4-.5-.7-.1-.3-.2-.6-.2-1s.1-.7.2-1c.1-.3.3-.6.6-.8.3-.2.6-.4 1-.6s.9-.2 1.4-.2c.6 0 1.1.1 1.6.3s.9.5 1.2.8l-.3.7zM155.2 49.7c-.8 0-1.3-.2-1.7-.6-.4-.4-.6-1-.6-1.8v-4.9h-.9c-.1 0-.2 0-.3-.1-.1-.1-.1-.2-.1-.3v-.8l1.4-.2.4-2.4c0-.1.1-.2.2-.3.1-.1.2-.1.3-.1h1.1v2.7h2.3v1.5H155v4.7c0 .3.1.5.2.6.1.2.3.2.5.2h.3c.1 0 .2-.1.2-.1.1 0 .1-.1.2-.1h.4l.1.1.6 1c-.3.3-.7.4-1.1.6s-.7.3-1.2.3zM158.9 49.6v-8.7h1.2c.2 0 .4 0 .5.1.1.1.1.2.2.4l.1 1.1c.3-.5.7-1 1.1-1.3.4-.3.9-.5 1.4-.5.4 0 .8.1 1.1.3l-.3 1.6c0 .1-.1.2-.1.2-.1 0-.1.1-.2.1s-.2 0-.3-.1c-.1 0-.3-.1-.6-.1-.4 0-.8.1-1.1.4-.3.2-.6.6-.8 1.1v5.4h-2.2zM172.5 49.6h-.9c-.2 0-.4 0-.5-.1s-.2-.2-.3-.4l-.2-.6c-.2.2-.4.4-.7.5-.2.1-.4.3-.7.4-.2.1-.5.2-.7.2-.3.1-.5.1-.8.1-.4 0-.7 0-1-.1-.3-.1-.6-.2-.8-.4s-.4-.4-.5-.7c-.1-.3-.2-.6-.2-1 0-.3.1-.7.3-1 .2-.3.5-.6.9-.9s.9-.5 1.6-.6c.7-.2 1.5-.3 2.5-.3v-.5c0-.6-.1-1-.4-1.3-.2-.3-.6-.4-1.1-.4-.3 0-.6 0-.8.1l-.6.3c-.2.1-.3.2-.5.3s-.3.1-.5.1c-.1 0-.3 0-.4-.1-.1-.1-.2-.2-.2-.3l-.4-.7c1-.9 2.2-1.4 3.6-1.4.5 0 1 .1 1.4.3.4.2.7.4 1 .7.3.3.5.7.6 1.1.1.4.2.9.2 1.4v5.3zm-4.1-1.3c.2 0 .4 0 .6-.1.2 0 .4-.1.5-.2s.3-.2.5-.3c.2-.1.3-.2.5-.4v-1.5c-.6 0-1.1 0-1.5.1s-.7.2-1 .3c-.2.1-.4.3-.5.4-.1.2-.2.3-.2.5 0 .4.1.6.3.8.2.3.4.4.8.4zM174.5 52.4V40.8h1.3c.1 0 .3 0 .3.1.1.1.2.2.2.3l.2.8c.4-.4.8-.7 1.2-1 .5-.2 1-.4 1.6-.4.5 0 .9.1 1.3.3s.7.5 1 .9c.3.4.5.8.7 1.4s.2 1.2.2 1.9-.1 1.3-.3 1.8c-.2.6-.4 1-.8 1.4-.3.4-.7.7-1.2 1-.5.2-1 .3-1.6.3-.5 0-.9-.1-1.3-.2s-.6-.4-.9-.6v3.6h-1.9zm4.1-10.1c-.4 0-.8.1-1.1.3-.3.2-.6.4-.9.8v3.9c.2.3.5.5.8.6s.6.2.9.2c.3 0 .6-.1.9-.2.3-.1.5-.3.7-.5.2-.2.3-.6.4-.9s.1-.8.1-1.3 0-.9-.1-1.3-.2-.6-.4-.9c-.2-.2-.3-.4-.6-.5-.2-.1-.4-.2-.7-.2zM191.6 37.1c.6 0 1.1.1 1.5.2.5.2.8.4 1.2.7.3.3.6.6.7 1s.3.8.3 1.2c0 .4 0 .7-.1 1s-.2.6-.4.8l-.6.6c-.2.2-.5.3-.8.4.7.2 1.3.6 1.6 1.1.4.5.5 1.1.5 1.8 0 .6-.1 1.2-.3 1.6-.2.5-.5.9-.9 1.2-.4.3-.8.6-1.3.7-.5.2-1 .2-1.6.2-.6 0-1.2-.1-1.6-.2s-.9-.4-1.2-.6c-.3-.3-.6-.6-.9-1s-.4-.9-.6-1.4l.9-.4c.2-.1.3-.1.5-.1.1 0 .3 0 .4.1l.3.3.3.6c.1.2.3.4.4.5.2.2.4.3.6.4.2.1.5.1.8.1.4 0 .7-.1.9-.2.3-.1.5-.3.7-.5.2-.2.3-.4.4-.6s.1-.5.1-.7c0-.3 0-.6-.1-.8-.1-.2-.2-.4-.4-.6s-.5-.3-.9-.4-.9-.1-1.5-.1v-1.5c.5 0 .9 0 1.3-.1.3-.1.6-.2.8-.4.2-.2.3-.4.4-.6s.1-.5.1-.7c0-.6-.2-1-.5-1.3-.3-.3-.8-.4-1.3-.4s-.9.1-1.2.4c-.3.3-.6.6-.7 1-.1.2-.2.4-.3.5-.1.1-.3.1-.5.1h-.3l-1.1-.2c.1-.6.2-1.1.5-1.6.2-.4.5-.8.9-1.1.4-.3.8-.5 1.3-.7.7-.2 1.2-.3 1.7-.3zM196.8 48.4c0-.2 0-.3.1-.5s.2-.3.3-.4.3-.2.4-.3c.2-.1.3-.1.5-.1s.3 0 .5.1.3.2.4.3.2.2.3.4c.1.2.1.3.1.5s0 .4-.1.5c-.1.2-.2.3-.3.4s-.2.2-.4.3c-.2.1-.3.1-.5.1s-.4 0-.5-.1c-.2-.1-.3-.2-.4-.3s-.2-.2-.3-.4c-.1-.1-.1-.3-.1-.5zM205.3 37.1c.6 0 1.1.1 1.5.2.5.2.8.4 1.2.7.3.3.6.6.7 1 .2.4.3.8.3 1.2 0 .4 0 .7-.1 1s-.2.6-.4.8l-.6.6c-.2.2-.5.3-.8.4.7.2 1.3.6 1.6 1.1.4.5.5 1.1.5 1.8 0 .6-.1 1.2-.3 1.6-.2.5-.5.9-.9 1.2-.4.3-.8.6-1.3.7-.5.2-1 .2-1.6.2-.6 0-1.2-.1-1.6-.2s-.9-.4-1.2-.6c-.3-.3-.6-.6-.9-1-.2-.4-.4-.9-.6-1.4l.9-.4c.2-.1.3-.1.5-.1.1 0 .3 0 .4.1l.3.3.3.6c.1.2.3.4.4.5s.4.3.6.4c.2.1.5.1.8.1.4 0 .7-.1.9-.2.3-.1.5-.3.7-.5.2-.2.3-.4.4-.6.1-.2.1-.5.1-.7 0-.3 0-.6-.1-.8-.1-.2-.2-.4-.4-.6-.2-.2-.5-.3-.9-.4-.4-.1-.9-.1-1.5-.1v-1.5c.5 0 .9 0 1.3-.1s.6-.2.8-.4c.2-.2.3-.4.4-.6s.1-.5.1-.7c0-.6-.2-1-.5-1.3-.3-.3-.8-.4-1.3-.4s-.9.1-1.2.4c-.3.3-.6.6-.7 1-.1.2-.2.4-.3.5-.1.1-.3.1-.5.1h-.3l-1.1-.2c.1-.6.2-1.1.5-1.6s.5-.8.9-1.1c.4-.3.8-.5 1.3-.7.7-.2 1.2-.3 1.7-.3zM210.5 48.4c0-.2 0-.3.1-.5s.2-.3.3-.4c.1-.1.3-.2.4-.3.2-.1.3-.1.5-.1s.3 0 .5.1.3.2.4.3.2.2.3.4c.1.2.1.3.1.5s0 .4-.1.5c-.1.2-.2.3-.3.4s-.2.2-.4.3c-.2.1-.3.1-.5.1s-.4 0-.5-.1c-.2-.1-.3-.2-.4-.3-.1-.1-.2-.2-.3-.4-.1-.1-.1-.3-.1-.5zM222.1 38.2c0 .3-.1.5-.3.7-.2.2-.5.3-.9.3h-3.4l-.4 2.6c.6-.1 1.1-.2 1.5-.2.6 0 1.2.1 1.7.3.5.2.9.5 1.2.8.3.3.6.7.8 1.2s.3.9.3 1.5c0 .7-.1 1.2-.3 1.8-.2.5-.5 1-1 1.4-.4.4-.9.7-1.4.9-.6.2-1.2.3-1.8.3-.4 0-.8 0-1.1-.1-.3-.1-.7-.2-1-.3s-.6-.3-.8-.5-.5-.4-.7-.5l.6-.9c.1-.2.3-.3.5-.3.1 0 .3 0 .4.1s.3.2.5.3c.2.1.4.2.7.3.3.1.6.1.9.1.4 0 .7-.1 1-.2s.5-.3.7-.5.3-.5.4-.8c.1-.3.1-.6.1-1 0-.7-.2-1.2-.6-1.6-.4-.4-1-.6-1.7-.6-.6 0-1.2.1-1.8.3l-1.3-.4 1-6h6.1v1zM114.1 70c-.3 0-.5-.1-.5-.4l-.2-.8-.6.6c-.2.2-.4.3-.6.4-.2.1-.5.2-.7.3-.3.1-.5.1-.9.1-.5 0-.9-.1-1.3-.3s-.7-.5-1-.9c-.3-.4-.5-.8-.7-1.4-.2-.6-.2-1.2-.2-1.9 0-.6.1-1.2.3-1.8.2-.6.4-1 .8-1.4s.7-.7 1.2-1 1-.3 1.5-.3.9.1 1.2.2c.3.2.7.4.9.6v-4.6h2.1V70h-1.3zm-2.8-1.6c.4 0 .8-.1 1.1-.3.3-.2.6-.4.9-.8v-3.9c-.2-.3-.5-.5-.8-.6-.3-.1-.6-.2-.9-.2-.3 0-.6.1-.9.2-.3.1-.5.3-.7.5-.2.2-.3.5-.4.9-.1.4-.1.8-.1 1.3s0 .9.1 1.3.2.6.4.9c.2.2.3.4.6.5.2.2.4.2.7.2zM121.4 61.1c.7 0 1.2.1 1.8.3.5.2 1 .5 1.4.9.4.4.7.9.9 1.4.2.6.3 1.2.3 1.9s-.1 1.3-.3 1.9c-.2.6-.5 1-.9 1.4-.4.4-.8.7-1.4.9-.5.2-1.1.3-1.8.3s-1.2-.1-1.8-.3c-.5-.2-1-.5-1.4-.9s-.7-.9-.9-1.4c-.2-.6-.3-1.2-.3-1.9s.1-1.3.3-1.9c.2-.6.5-1 .9-1.4.4-.4.8-.7 1.4-.9.5-.2 1.1-.3 1.8-.3zm0 7.4c.7 0 1.3-.2 1.6-.7.3-.5.5-1.2.5-2.1s-.2-1.7-.5-2.2c-.3-.5-.9-.7-1.6-.7-.7 0-1.3.2-1.6.7-.4.5-.5 1.2-.5 2.1 0 .9.2 1.6.5 2.1s.8.8 1.6.8zM137.1 65.4c.1.2.2.4.2.6.1-.2.2-.4.2-.6l.3-.6 3.6-6.8c0-.1.1-.2.1-.2 0-.1.1-.1.2-.1h2.2V70h-2v-8-.5-.5l-3.7 7c-.1.2-.2.3-.3.4s-.3.1-.5.1h-.3c-.2 0-.3 0-.5-.1-.1-.1-.2-.2-.3-.4l-3.8-7v9h-2V57.7h2.2c.1 0 .1.1.2.1.1.1.1.1.1.2l3.7 6.8c.3.2.4.4.4.6zM153.2 70h-.9c-.2 0-.4 0-.5-.1s-.2-.2-.3-.4l-.2-.6c-.2.2-.4.4-.7.5-.2.1-.4.3-.7.4-.2.1-.5.2-.7.2-.3.1-.5.1-.8.1-.4 0-.7 0-1-.1-.3-.1-.6-.2-.8-.4-.2-.2-.4-.4-.5-.7-.1-.3-.2-.6-.2-1 0-.3.1-.7.3-1s.5-.6.9-.9.9-.5 1.6-.6c.7-.2 1.5-.3 2.5-.3v-.5c0-.6-.1-1-.4-1.3-.2-.3-.6-.4-1.1-.4-.3 0-.6 0-.9.1l-.6.3c-.2.1-.3.2-.5.3-.1.1-.3.1-.5.1-.1 0-.3 0-.4-.1-.1-.1-.2-.2-.2-.3l-.4-.7c1-.9 2.2-1.4 3.6-1.4.5 0 1 .1 1.4.3s.7.4 1 .7c.3.3.5.7.6 1.1.1.4.2.9.2 1.4V70zm-4-1.3c.2 0 .4 0 .6-.1s.4-.1.5-.2c.2-.1.3-.2.5-.3.2-.1.3-.2.5-.4v-1.5c-.6 0-1.1 0-1.5.1-.4.1-.7.2-1 .3-.2.1-.4.3-.5.4-.1.2-.2.3-.2.5 0 .4.1.6.3.8.1.3.4.4.8.4zM157.2 61.2v5.5c0 .5.1.9.4 1.2s.6.4 1.1.4c.4 0 .7-.1 1-.2.3-.2.6-.4.9-.7v-6.3h2.1V70h-1.3c-.3 0-.5-.1-.5-.4l-.1-.7c-.2.2-.4.3-.6.5s-.4.3-.6.4c-.2.1-.5.2-.7.2-.3.1-.5.1-.8.1-.5 0-.9-.1-1.3-.2-.4-.2-.7-.4-.9-.7-.2-.3-.4-.6-.6-1-.1-.4-.2-.9-.2-1.3v-5.5h2.1zM167.2 61.2v9c0 .4 0 .7-.1 1.1-.1.3-.3.6-.5.9s-.5.5-.9.6c-.4.1-.8.2-1.3.2h-.6c-.2 0-.3-.1-.5-.1l.1-1.1c0-.1.1-.2.1-.2h.4c.2 0 .4 0 .5-.1.1 0 .3-.1.3-.2.1-.1.2-.2.2-.4s.1-.3.1-.6v-9h2.2zm.3-2.5c0 .2 0 .4-.1.5-.1.2-.2.3-.3.4s-.3.2-.4.3c-.2.1-.3.1-.5.1s-.4 0-.5-.1c-.2-.1-.3-.2-.4-.3s-.2-.3-.3-.4c-.1-.2-.1-.3-.1-.5s0-.4.1-.5c.1-.2.2-.3.3-.4s.3-.2.4-.3c.2-.1.3-.1.5-.1s.4 0 .5.1c.2.1.3.2.4.3s.2.3.3.4c.1.1.1.3.1.5zM173.3 61.1c.7 0 1.2.1 1.8.3.5.2 1 .5 1.4.9.4.4.7.9.9 1.4.2.6.3 1.2.3 1.9s-.1 1.3-.3 1.9c-.2.6-.5 1-.9 1.4s-.8.7-1.4.9c-.5.2-1.1.3-1.8.3s-1.2-.1-1.8-.3c-.5-.2-1-.5-1.4-.9s-.7-.9-.9-1.4c-.2-.6-.3-1.2-.3-1.9s.1-1.3.3-1.9c.2-.6.5-1 .9-1.4.4-.4.8-.7 1.4-.9.5-.2 1.1-.3 1.8-.3zm0 7.4c.7 0 1.3-.2 1.6-.7.3-.5.5-1.2.5-2.1s-.2-1.7-.5-2.2c-.3-.5-.9-.7-1.6-.7-.7 0-1.3.2-1.6.7s-.5 1.2-.5 2.1c0 .9.2 1.6.5 2.1s.8.8 1.6.8zM179.2 70v-8.7h1.2c.2 0 .4 0 .5.1.1.1.1.2.2.4l.1 1.1c.3-.5.7-1 1.1-1.3.4-.3.9-.5 1.4-.5.4 0 .8.1 1.1.3l-.3 1.6c0 .1-.1.2-.1.2-.1 0-.1.1-.2.1s-.2 0-.3-.1c-.1 0-.3-.1-.6-.1-.4 0-.8.1-1.1.4-.3.2-.6.6-.8 1.1V70h-2.2z"/></g></g></svg>