<svg version="1.1" xmlns="http://www.w3.org/2000/svg" x="0" y="0" width="240" height="90" viewBox="0 0 240 90" xml:space="preserve"><path fill="#1B5EAC" d="M0 0h240v90H0V0z"/><path fill="none" stroke="#FFF" stroke-width="2" d="M37.1 54.2l17.4-.1M37.1 48.1h21.6m-21.6-7.3h21.4"/><g stroke="#FFF"><path fill="none" stroke-width="2.5" d="M41.1 24c1 0 24.1.1 24.1.1v41.3H29.5s-.1-28.4-.1-30.7c2.4-1.9 8.2-7.7 11.7-10.7z"/><path fill="#FFF" d="M29.5 35h12.2V24.1"/></g><g stroke="#FFF"><path fill="#1B5EAC" stroke-width="1.166" d="M52.6 58.1l3.6-7.1 24-23.2 3.5 3.4-24 24-7.1 2.9z"/><path fill="none" d="M56.1 51.2l3.7 3.8"/></g><text transform="translate(106.3 40.135)"><tspan x="0" y="0" fill="#FFF" font-family="'Lato-Bold'" font-size="17">Publique seu</tspan><tspan x="0" y="20.4" fill="#FFF" font-family="'Lato-Bold'" font-size="17">livro conosco</tspan></text><g><path fill="#6C7778" d="M0 0h240v90H0V0z"/><path fill="none" stroke="#FFF" stroke-width="2" d="M35.4 54.4l17.4-.1M35.4 48.3H57M35.4 41h21.4"/><g stroke="#FFF"><path fill="none" stroke-width="2.5" d="M39.4 24.3c1 0 24.1.1 24.1.1v41.3H27.9s-.1-28.4-.1-30.7c2.3-1.9 8.1-7.7 11.6-10.7z"/><path fill="#FFF" d="M27.8 35.2H40V24.3"/></g><g stroke="#FFF"><path fill="#6C7778" stroke-width="1.166" d="M50.9 58.3l3.6-7.1 24-23.2 3.5 3.4-24 24-7.1 2.9z"/><path fill="none" d="M54.4 51.4l3.7 3.8"/></g><g fill="#FFF"><path d="M109.9 34.8v4.3h-2.3V26.8h4c.8 0 1.5.1 2.1.3s1.1.5 1.5.8.7.8.9 1.2c.2.5.3 1 .3 1.6 0 .6-.1 1.1-.3 1.6s-.5.9-.9 1.3-.9.6-1.5.8c-.6.2-1.3.3-2.1.3h-1.7zm0-1.8h1.7c.4 0 .8-.1 1.1-.2.3-.1.6-.3.8-.5.2-.2.4-.4.5-.7.1-.3.2-.6.2-.9 0-.3-.1-.6-.2-.9-.1-.3-.3-.5-.5-.7-.2-.2-.5-.3-.8-.4-.3-.1-.7-.1-1.1-.1h-1.7V33zM120 30.4V36c0 .5.1.9.4 1.2s.6.4 1.1.4c.4 0 .7-.1 1-.2.3-.2.6-.4.9-.7v-6.3h2.1v8.7h-1.3c-.3 0-.5-.1-.5-.4l-.1-.7c-.2.2-.4.3-.6.5-.2.2-.4.3-.6.4-.2.1-.5.2-.7.2-.3.1-.5.1-.8.1-.5 0-.9-.1-1.3-.2-.4-.2-.7-.4-.9-.7-.2-.3-.4-.6-.6-1s-.2-.9-.2-1.3v-5.5h2.1zM127.7 39.1V26.5h2.1v5c.3-.4.7-.7 1.2-.9.4-.2.9-.3 1.5-.3.5 0 .9.1 1.3.3.4.2.7.5 1 .9s.5.8.7 1.4c.2.5.2 1.2.2 1.9s-.1 1.3-.3 1.8c-.2.6-.4 1-.8 1.4s-.7.7-1.2 1-1 .3-1.6.3c-.3 0-.5 0-.7-.1-.2-.1-.4-.1-.6-.2-.2-.1-.3-.2-.5-.4-.2-.1-.3-.3-.4-.5l-.1.6c0 .1-.1.3-.2.3s-.2.1-.3.1h-1.3zm4.1-7.2c-.4 0-.8.1-1.1.3-.3.2-.6.4-.9.8v3.9c.2.3.5.5.8.6.3.1.6.2.9.2.3 0 .6-.1.9-.2.3-.1.5-.3.7-.5.2-.2.3-.6.4-.9.1-.4.1-.8.1-1.3s0-.9-.1-1.3-.2-.6-.4-.9c-.2-.2-.3-.4-.6-.5-.2-.1-.4-.2-.7-.2zM139.6 26.5v12.6h-2.1V26.5h2.1zM144.6 27.9c0 .2 0 .4-.1.5-.1.2-.2.3-.3.4s-.3.2-.4.3c-.2.1-.3.1-.5.1s-.4 0-.5-.1c-.2-.1-.3-.2-.4-.3s-.2-.3-.3-.4c-.1-.2-.1-.3-.1-.5s0-.4.1-.5c.1-.2.2-.3.3-.4s.3-.2.4-.3c.2-.1.3-.1.5-.1s.4 0 .5.1c.2.1.3.2.4.3s.2.3.3.4c0 .1.1.3.1.5zm-.4 2.5v8.7h-2.1v-8.7h2.1zM154 30.4V42h-2.1v-4c-.2.2-.4.4-.6.5s-.4.3-.6.4c-.2.1-.5.2-.7.2-.2.1-.5.1-.8.1-.5 0-.9-.1-1.3-.3s-.7-.5-1-.9c-.3-.4-.5-.8-.7-1.4-.2-.6-.2-1.2-.2-1.9 0-.6.1-1.2.3-1.8.2-.6.4-1 .8-1.4.3-.4.7-.7 1.2-1s1-.3 1.5-.3c.3 0 .5 0 .7.1.2 0 .4.1.6.2.2.1.4.2.5.3.2.1.3.3.5.4l.1-.5c0-.1.1-.2.2-.3.1-.1.2-.1.3-.1h1.3zm-4 7.2c.4 0 .8-.1 1.1-.3.3-.2.6-.4.9-.8v-3.9c-.2-.3-.5-.5-.8-.6-.3-.1-.6-.2-.9-.2-.3 0-.6.1-.9.2-.3.1-.5.3-.7.5-.2.2-.3.5-.4.9-.1.4-.1.8-.1 1.3s0 .9.1 1.3.2.6.4.9c.2.2.3.4.6.5.1.1.4.2.7.2zM158.2 30.4V36c0 .5.1.9.4 1.2.2.3.6.4 1.1.4.4 0 .7-.1 1-.2.3-.2.6-.4.9-.7v-6.3h2.1v8.7h-1.3c-.3 0-.5-.1-.5-.4l-.1-.7c-.2.2-.4.3-.6.5-.2.2-.4.3-.6.4-.2.1-.5.2-.7.2-.3.1-.5.1-.8.1-.5 0-.9-.1-1.3-.2-.4-.2-.7-.4-.9-.7-.2-.3-.4-.6-.6-1s-.2-.9-.2-1.3v-5.5h2.1zM169.6 30.3c.5 0 1.1.1 1.5.3.5.2.9.4 1.2.8.3.3.6.8.8 1.2.2.5.3 1 .3 1.7v.4c0 .1 0 .2-.1.2s-.1.1-.1.1H167.6c.1.9.3 1.6.7 2 .4.4 1 .6 1.7.6.3 0 .6 0 .9-.1.2-.1.5-.2.6-.3.2-.1.3-.2.5-.3.1-.1.3-.1.4-.1.1 0 .2 0 .2.1s.1.1.2.1l.6.8c-.2.3-.5.5-.8.7s-.6.3-.9.4c-.3.1-.6.2-1 .2-.3 0-.6.1-.9.1-.6 0-1.2-.1-1.7-.3-.5-.2-1-.5-1.4-.9-.4-.4-.7-.9-.9-1.5-.2-.6-.3-1.3-.3-2 0-.6.1-1.2.3-1.7.2-.5.5-1 .8-1.4.4-.4.8-.7 1.3-.9.4-.1 1-.2 1.7-.2zm0 1.5c-.6 0-1.1.2-1.4.5s-.6.8-.7 1.5h3.9c0-.3 0-.5-.1-.8s-.2-.5-.3-.6c-.2-.2-.3-.3-.6-.4-.2-.2-.5-.2-.8-.2zM183.5 32.1c-.1.1-.1.2-.2.2s-.1.1-.2.1-.2 0-.3-.1c-.1-.1-.3-.1-.4-.2-.2-.1-.3-.1-.5-.2s-.4-.1-.7-.1c-.4 0-.7.1-1 .3s-.4.4-.4.7c0 .2.1.3.2.5.1.1.3.2.5.3s.4.2.7.3c.3.1.5.2.8.3.3.1.5.2.8.3.3.1.5.3.7.4.2.2.4.4.5.6.1.2.2.5.2.9s-.1.8-.2 1.2c-.2.4-.4.7-.7.9s-.7.5-1.1.6-.9.2-1.5.2c-.3 0-.6 0-.9-.1-.3-.1-.6-.1-.8-.2s-.5-.2-.7-.3c-.2-.1-.4-.3-.6-.4l.5-.8c.1-.1.1-.2.2-.2.1-.1.2-.1.3-.1s.3 0 .4.1c.1.1.3.2.4.2s.3.2.5.2c.2.1.5.1.8.1.2 0 .5 0 .6-.1.2-.1.3-.1.4-.2l.3-.3c.1-.1.1-.3.1-.4 0-.2-.1-.4-.2-.5-.1-.1-.3-.2-.5-.3-.2-.1-.4-.2-.7-.3s-.5-.2-.8-.3-.5-.2-.8-.3-.5-.3-.7-.5c-.2-.2-.4-.4-.5-.7-.1-.3-.2-.6-.2-1s.1-.7.2-1c.1-.3.3-.6.6-.8.3-.2.6-.4 1-.6.4-.1.9-.2 1.4-.2.6 0 1.1.1 1.6.3.5.2.9.5 1.2.8l-.3.7zM189.4 30.3c.5 0 1.1.1 1.5.3s.9.4 1.2.8.6.8.8 1.2c.2.5.3 1 .3 1.7v.4c0 .1 0 .2-.1.2s-.1.1-.2.1H187.3c.1.9.3 1.6.7 2 .4.4 1 .6 1.7.6.3 0 .6 0 .9-.1.2-.1.5-.2.6-.3.2-.1.3-.2.5-.3.1-.1.3-.1.4-.1.1 0 .2 0 .2.1.1 0 .1.1.2.1l.6.8c-.2.3-.5.5-.8.7s-.6.3-.9.4c-.3.1-.6.2-1 .2-.3 0-.6.1-.9.1-.6 0-1.2-.1-1.7-.3-.5-.2-1-.5-1.4-.9-.4-.4-.7-.9-.9-1.5-.2-.6-.3-1.3-.3-2 0-.6.1-1.2.3-1.7.2-.5.5-1 .8-1.4.4-.4.8-.7 1.3-.9s1.1-.2 1.8-.2zm0 1.5c-.6 0-1.1.2-1.4.5s-.6.8-.7 1.5h3.9c0-.3 0-.5-.1-.8-.1-.2-.2-.5-.3-.6-.2-.2-.3-.3-.6-.4-.2-.2-.5-.2-.8-.2zM196.8 30.4V36c0 .5.1.9.4 1.2.2.3.6.4 1.1.4.4 0 .7-.1 1-.2.3-.2.6-.4.9-.7v-6.3h2.1v8.7H201c-.3 0-.5-.1-.5-.4l-.1-.7c-.2.2-.4.3-.6.5-.2.2-.4.3-.6.4-.2.1-.5.2-.7.2s-.5.1-.8.1c-.5 0-.9-.1-1.3-.2-.4-.2-.7-.4-.9-.7-.2-.3-.4-.6-.6-1s-.2-.9-.2-1.3v-5.5h2.1zM109.7 46.9v12.6h-2.1V46.9h2.1zM114.6 48.3c0 .2 0 .4-.1.5-.1.2-.2.3-.3.4-.1.1-.3.2-.4.3-.2.1-.3.1-.5.1s-.4 0-.5-.1c-.2-.1-.3-.2-.4-.3s-.2-.3-.3-.4c-.1-.2-.1-.3-.1-.5s0-.4.1-.5c.1-.2.2-.3.3-.4s.3-.2.4-.3c.2-.1.3-.1.5-.1s.4 0 .5.1c.2.1.3.2.4.3.1.1.2.3.3.4 0 .1.1.3.1.5zm-.3 2.5v8.7h-2.1v-8.7h2.1zM121 59.5h-1.9l-3.5-8.7h1.7c.2 0 .3 0 .4.1.1.1.2.2.2.3l1.7 4.7c.1.3.2.5.2.8.1.3.1.5.2.8.1-.3.1-.5.2-.8.1-.3.1-.5.3-.8l1.7-4.7c0-.1.1-.2.2-.3.1-.1.2-.1.4-.1h1.7l-3.5 8.7zM125.7 59.5v-8.7h1.2c.2 0 .4 0 .5.1.1.1.1.2.2.4l.1 1.1c.3-.5.7-1 1.1-1.3.4-.3.9-.5 1.4-.5.4 0 .8.1 1.1.3l-.3 1.6c0 .1-.1.2-.1.2-.1 0-.1.1-.2.1s-.2 0-.3-.1c-.1 0-.3-.1-.6-.1-.4 0-.8.1-1.1.4-.3.2-.6.6-.8 1.1v5.4h-2.2zM136.4 50.7c.7 0 1.2.1 1.8.3.5.2 1 .5 1.4.9.4.4.7.9.9 1.4.2.6.3 1.2.3 1.9s-.1 1.3-.3 1.9c-.2.6-.5 1-.9 1.4-.4.4-.8.7-1.4.9-.5.2-1.1.3-1.8.3s-1.2-.1-1.8-.3c-.5-.2-1-.5-1.4-.9s-.7-.9-.9-1.4c-.2-.6-.3-1.2-.3-1.9s.1-1.3.3-1.9c.2-.6.5-1 .9-1.4.4-.4.8-.7 1.4-.9.5-.2 1.1-.3 1.8-.3zm0 7.3c.7 0 1.3-.2 1.6-.7.3-.5.5-1.2.5-2.1s-.2-1.7-.5-2.2c-.3-.5-.9-.7-1.6-.7-.7 0-1.3.2-1.6.7-.4.5-.5 1.2-.5 2.1 0 .9.2 1.6.5 2.1.3.6.8.8 1.6.8zM151.7 52.7l-.2.2c-.1 0-.1.1-.3.1-.1 0-.2 0-.3-.1-.1-.1-.2-.1-.4-.2-.1-.1-.3-.2-.5-.2-.2-.1-.4-.1-.7-.1-.4 0-.7.1-1 .2-.3.1-.5.3-.7.6s-.3.6-.4.9c-.1.4-.1.8-.1 1.2 0 .5 0 .9.1 1.2.1.4.2.7.4.9.2.2.4.4.7.6.3.1.6.2.9.2s.6 0 .8-.1.4-.2.5-.3c.1-.1.3-.2.4-.3.1-.1.2-.1.4-.1s.3.1.4.2l.6.8c-.2.3-.5.5-.8.7-.3.2-.6.3-.8.4-.3.1-.6.2-.9.2-.3 0-.6.1-.9.1-.5 0-1-.1-1.5-.3-.5-.2-.9-.5-1.2-.9-.4-.4-.6-.9-.8-1.4-.2-.6-.3-1.2-.3-1.9 0-.6.1-1.2.3-1.8s.5-1 .8-1.4c.4-.4.8-.7 1.3-.9.5-.2 1.1-.3 1.8-.3s1.2.1 1.7.3c.5.2.9.5 1.3.9l-.6.6zM157.4 50.7c.7 0 1.2.1 1.8.3.5.2 1 .5 1.4.9.4.4.7.9.9 1.4.2.6.3 1.2.3 1.9s-.1 1.3-.3 1.9c-.2.6-.5 1-.9 1.4s-.8.7-1.4.9c-.5.2-1.1.3-1.8.3s-1.2-.1-1.8-.3c-.5-.2-1-.5-1.4-.9s-.7-.9-.9-1.4c-.2-.6-.3-1.2-.3-1.9s.1-1.3.3-1.9c.2-.6.5-1 .9-1.4.4-.4.8-.7 1.4-.9.6-.2 1.2-.3 1.8-.3zm0 7.3c.7 0 1.3-.2 1.6-.7s.5-1.2.5-2.1-.2-1.7-.5-2.2-.9-.7-1.6-.7c-.7 0-1.3.2-1.6.7-.4.5-.5 1.2-.5 2.1 0 .9.2 1.6.5 2.1.3.6.9.8 1.6.8zM163.4 59.5v-8.7h1.3c.3 0 .5.1.5.4l.1.7c.2-.2.4-.3.6-.5.2-.1.4-.3.6-.4s.5-.2.7-.2c.2-.1.5-.1.8-.1.5 0 .9.1 1.3.2.4.2.7.4.9.7s.4.6.6 1c.1.4.2.9.2 1.3v5.6h-2.1V54c0-.5-.1-.9-.4-1.2-.2-.3-.6-.4-1.1-.4-.4 0-.7.1-1 .2-.3.2-.6.4-.9.7v6.3h-2.1zM176.8 50.7c.7 0 1.2.1 1.8.3.5.2 1 .5 1.4.9.4.4.7.9.9 1.4.2.6.3 1.2.3 1.9s-.1 1.3-.3 1.9c-.2.6-.5 1-.9 1.4-.4.4-.8.7-1.4.9-.5.2-1.1.3-1.8.3s-1.2-.1-1.8-.3c-.5-.2-1-.5-1.4-.9s-.7-.9-.9-1.4c-.2-.6-.3-1.2-.3-1.9s.1-1.3.3-1.9c.2-.6.5-1 .9-1.4.4-.4.8-.7 1.4-.9.5-.2 1.1-.3 1.8-.3zm0 7.3c.7 0 1.3-.2 1.6-.7.3-.5.5-1.2.5-2.1s-.2-1.7-.5-2.2c-.3-.5-.9-.7-1.6-.7-.7 0-1.3.2-1.6.7s-.5 1.2-.5 2.1c0 .9.2 1.6.5 2.1s.8.8 1.6.8zM187.9 52.5c-.1.1-.1.2-.2.2s-.1.1-.2.1-.2 0-.3-.1-.3-.1-.4-.2c-.2-.1-.3-.1-.5-.2s-.4-.1-.7-.1c-.4 0-.7.1-1 .3s-.4.4-.4.7c0 .2.1.3.2.5.1.1.3.2.5.3s.4.2.7.3c.3.1.5.2.8.3s.5.2.8.3.5.3.7.4c.2.2.4.4.5.6.1.2.2.5.2.9s-.1.8-.2 1.2c-.2.4-.4.7-.7.9s-.7.5-1.1.6-.9.2-1.5.2c-.3 0-.6 0-.9-.1-.3-.1-.6-.1-.8-.2s-.5-.2-.7-.3c-.2-.1-.4-.3-.6-.4l.5-.8c.1-.1.1-.2.2-.2s.2-.1.3-.1c.1 0 .3 0 .4.1s.3.2.4.2c.2.1.3.2.5.2.2.1.5.1.8.1.2 0 .5 0 .6-.1s.3-.1.4-.2l.3-.3c.1-.1.1-.3.1-.4 0-.2-.1-.4-.2-.5-.1-.1-.3-.2-.5-.3-.2-.1-.4-.2-.7-.3s-.5-.2-.8-.3c-.3-.1-.5-.2-.8-.3s-.5-.3-.7-.5c-.2-.2-.4-.4-.5-.7-.1-.3-.2-.6-.2-1s.1-.7.2-1c.1-.3.4-.6.6-.8.3-.2.6-.4 1-.6s.9-.2 1.4-.2c.6 0 1.1.1 1.6.3s.9.5 1.2.8l-.3.7zM196.3 52.7l-.2.2c-.1.1-.1.1-.3.1-.1 0-.2 0-.3-.1-.1-.1-.2-.1-.4-.2-.1-.1-.3-.2-.5-.2s-.4-.1-.7-.1c-.4 0-.7.1-1 .2-.3.1-.5.3-.7.6-.2.2-.3.6-.4.9-.1.4-.1.8-.1 1.2 0 .5 0 .9.1 1.2.1.4.2.7.4.9.2.2.4.4.7.6.3.1.6.2.9.2.3 0 .6 0 .8-.1.2-.1.4-.2.5-.3.1-.1.3-.2.4-.3.1-.1.2-.1.4-.1s.3.1.4.2l.6.8c-.2.3-.5.5-.8.7-.3.2-.6.3-.8.4-.3.1-.6.2-.9.2-.3 0-.6.1-.9.1-.5 0-1-.1-1.5-.3-.5-.2-.9-.5-1.2-.9-.4-.4-.6-.9-.8-1.4-.2-.6-.3-1.2-.3-1.9 0-.6.1-1.2.3-1.8.2-.5.5-1 .8-1.4.4-.4.8-.7 1.3-.9.5-.2 1.1-.3 1.8-.3s1.2.1 1.7.3c.5.2.9.5 1.3.9l-.6.6zM202 50.7c.7 0 1.2.1 1.8.3.5.2 1 .5 1.4.9.4.4.7.9.9 1.4.2.6.3 1.2.3 1.9s-.1 1.3-.3 1.9c-.2.6-.5 1-.9 1.4s-.8.7-1.4.9c-.5.2-1.1.3-1.8.3s-1.2-.1-1.8-.3c-.5-.2-1-.5-1.4-.9s-.7-.9-.9-1.4c-.2-.6-.3-1.2-.3-1.9s.1-1.3.3-1.9c.2-.6.5-1 .9-1.4.4-.4.8-.7 1.4-.9.5-.2 1.1-.3 1.8-.3zm0 7.3c.7 0 1.3-.2 1.6-.7s.5-1.2.5-2.1-.2-1.7-.5-2.2-.9-.7-1.6-.7c-.7 0-1.3.2-1.6.7s-.5 1.2-.5 2.1c0 .9.2 1.6.5 2.1s.8.8 1.6.8z"/></g></g></svg>