<svg version="1.1" xmlns="http://www.w3.org/2000/svg" x="0" y="0" width="240" height="90" viewBox="0 0 240 90" xml:space="preserve"><path fill="#032E36" d="M0 0h240v90H0V0z"/><path fill="#FFF" d="M48.2 39h2.4V26.2h-2.1l-3.2 1.6.4 1.6 2.5-1.2V39zM58 26c-2.8 0-4.2 2.6-4.2 6.6 0 3.7 1.2 6.5 4 6.5 2.3 0 4.1-2 4.1-6.6 0-3.5-1-6.5-3.9-6.5zm-.1 1.8c1.2 0 1.6 1.9 1.6 4.8 0 3-.5 4.8-1.6 4.8-1.2 0-1.7-1.7-1.7-4.8 0-3 .6-4.8 1.7-4.8z"/><path fill="none" stroke="#FFF" stroke-width="2" d="M46.8 15l7.2 3.6 6.8-3.3 3.6 6.8 6.8 3.7-3.4 7 3.5 7.1-6.9 3.5-3.4 7.1-7-3.6-6.9 3.6-3.5-7-6.9-3.6 3.5-7.1-3.6-7.2 7-3.4 3.2-7.2z"/><g fill="none" stroke="#FFF" stroke-width="2"><path d="M56.6 48.2L54 46.8l-6.8 3.5-3.3-6.3-11.4 28.2 7.5-3.7 3.6 6.3 13-26.6z"/><path d="M61.7 75.6l4.9-8.1 9.1 3.7-10.9-27.7-3.8 6.9-4.5-2-2.2 4.6 7.4 22.6z"/></g><g fill="#FFF"><path d="M108.5 27.4h1.8c.2 0 .4 0 .5.1.1.1.2.2.3.4l2.9 7.5c.1.2.2.5.3.8l.3.9c.1-.7.3-1.2.5-1.7l2.9-7.5c.1-.1.1-.2.3-.4.1-.1.3-.2.5-.2h1.8l-5 12.3h-2.1l-5-12.2zM124.2 30.8c.5 0 1.1.1 1.5.3s.9.4 1.2.8.6.8.8 1.2c.2.5.3 1 .3 1.7v.4c0 .1 0 .2-.1.2s-.1.1-.1.1H122.2c.1.9.3 1.6.7 2 .4.4 1 .6 1.7.6.3 0 .6 0 .9-.1.2-.1.5-.2.6-.3.2-.1.3-.2.5-.3.1-.1.3-.1.4-.1.1 0 .2 0 .2.1.1 0 .1.1.2.1l.6.8c-.2.3-.5.5-.8.7s-.6.3-.9.4c-.3.1-.6.2-1 .2-.3 0-.6.1-.9.1-.6 0-1.2-.1-1.7-.3-.5-.2-1-.5-1.4-.9-.4-.4-.7-.9-.9-1.5-.2-.6-.3-1.3-.3-2 0-.6.1-1.2.3-1.7.2-.5.5-1 .8-1.4.4-.4.8-.7 1.3-.9s1-.2 1.7-.2zm0 1.5c-.6 0-1.1.2-1.4.5s-.6.8-.7 1.5h3.9c0-.3 0-.5-.1-.8-.1-.2-.2-.5-.3-.6-.2-.2-.3-.3-.6-.4-.2-.2-.5-.2-.8-.2zM131.9 30.9v9c0 .4 0 .7-.1 1.1-.1.3-.3.6-.5.9-.2.3-.5.5-.9.6-.4.1-.8.2-1.3.2h-.6c-.2 0-.3-.1-.5-.1l.1-1.1c0-.1.1-.2.1-.2h.4c.2 0 .4 0 .5-.1.1 0 .3-.1.3-.2.1-.1.2-.2.2-.4s.1-.3.1-.6v-9h2.2zm.3-2.5c0 .2 0 .4-.1.5-.1.2-.2.3-.3.4-.1.1-.3.2-.4.3-.2.1-.3.1-.5.1s-.4 0-.5-.1c-.2-.1-.3-.2-.4-.3s-.2-.3-.3-.4c-.1-.2-.1-.3-.1-.5s0-.4.1-.5c.1-.2.2-.3.3-.4s.3-.2.4-.3c.2-.1.3-.1.5-.1s.4 0 .5.1c.2.1.3.2.4.3.1.1.2.3.3.4.1.1.1.3.1.5zM141.1 39.6h-.9c-.2 0-.4 0-.5-.1s-.2-.2-.3-.4l-.2-.6c-.2.2-.4.4-.6.5-.2.1-.4.3-.7.4-.2.1-.5.2-.7.2s-.5.1-.8.1c-.4 0-.7 0-1-.1-.3-.1-.6-.2-.8-.4s-.4-.4-.5-.7c-.1-.3-.2-.6-.2-1 0-.3.1-.7.3-1s.5-.6.9-.9.9-.5 1.6-.6c.7-.2 1.5-.3 2.5-.3v-.5c0-.6-.1-1-.4-1.3-.2-.3-.6-.4-1.1-.4-.3 0-.6 0-.9.1l-.6.3c-.2.1-.3.2-.5.3s-.3.1-.5.1c-.1 0-.3 0-.4-.1-.1-.1-.2-.2-.2-.3l-.4-.7c1-.9 2.2-1.4 3.6-1.4.5 0 1 .1 1.4.3.4.2.7.4 1 .7.3.3.5.7.6 1.1.1.4.2.9.2 1.4v5.3zm-4.1-1.3c.2 0 .4 0 .6-.1.2 0 .4-.1.5-.2s.3-.2.5-.3c.1-.1.3-.2.5-.4v-1.5c-.6 0-1.1 0-1.5.1s-.7.2-1 .3c-.2.1-.4.3-.5.4-.1.2-.2.3-.2.5 0 .4.1.6.3.8.2.4.4.4.8.4zM150.1 30.8c.7 0 1.2.1 1.8.3.5.2 1 .5 1.4.9.4.4.7.9.9 1.4.2.6.3 1.2.3 1.9s-.1 1.3-.3 1.9c-.2.6-.5 1-.9 1.4s-.8.7-1.4.9c-.5.2-1.1.3-1.8.3s-1.2-.1-1.8-.3c-.5-.2-1-.5-1.4-.9s-.7-.9-.9-1.4c-.2-.6-.3-1.2-.3-1.9s.1-1.3.3-1.9c.2-.6.5-1 .9-1.4.4-.4.8-.7 1.4-.9.6-.2 1.2-.3 1.8-.3zm0 7.4c.7 0 1.3-.2 1.6-.7s.5-1.2.5-2.1-.2-1.7-.5-2.2-.9-.7-1.6-.7c-.7 0-1.3.2-1.6.7s-.5 1.2-.5 2.1c0 .9.2 1.6.5 2.1s.9.8 1.6.8zM161.3 32.6c-.1.1-.1.2-.2.2s-.1.1-.2.1-.2 0-.3-.1-.3-.1-.4-.2c-.2-.1-.3-.1-.5-.2s-.4-.1-.7-.1c-.4 0-.7.1-1 .3s-.4.4-.4.7c0 .2.1.3.2.5.1.1.3.2.5.3s.4.2.7.3c.3.1.5.2.8.3s.5.2.8.3.5.3.7.4c.2.2.4.4.5.6.1.2.2.5.2.9s-.1.8-.2 1.2c-.2.4-.4.7-.7.9s-.7.5-1.1.6-.9.2-1.5.2c-.3 0-.6 0-.9-.1-.3-.1-.6-.1-.8-.2s-.5-.2-.7-.3c-.2-.1-.4-.3-.6-.4l.5-.8c.1-.1.1-.2.2-.2s.2-.1.3-.1c.1 0 .3 0 .4.1s.3.2.4.2c.2.1.3.2.5.2.2.1.5.1.8.1.2 0 .5 0 .6-.1s.3-.1.4-.2l.3-.3c.1-.1.1-.3.1-.4 0-.2-.1-.4-.2-.5-.1-.1-.3-.2-.5-.3-.2-.1-.4-.2-.7-.3s-.5-.2-.8-.3c-.3-.1-.5-.2-.8-.3s-.5-.3-.7-.5c-.2-.2-.4-.4-.5-.7-.1-.3-.2-.6-.2-1s.1-.7.2-1c.1-.3.4-.6.6-.8.3-.2.6-.4 1-.6s.9-.2 1.4-.2c.6 0 1.1.1 1.6.3s.9.5 1.2.8l-.3.7zM169 27v12.6h-2.1V27h2.1zM174 28.4c0 .2 0 .4-.1.5-.1.2-.2.3-.3.4-.1.1-.3.2-.4.3-.2.1-.3.1-.5.1s-.4 0-.5-.1c-.2-.1-.3-.2-.4-.3s-.2-.3-.3-.4c-.1-.2-.1-.3-.1-.5s0-.4.1-.5c.1-.2.2-.3.3-.4s.3-.2.4-.3c.2-.1.3-.1.5-.1s.4 0 .5.1c.2.1.3.2.4.3.1.1.2.3.3.4 0 .1.1.3.1.5zm-.4 2.5v8.7h-2.1v-8.7h2.1zM180.4 39.6h-1.9l-3.5-8.7h1.7c.2 0 .3 0 .4.1.1.1.2.2.2.3L179 36c.1.3.2.5.2.8.1.3.1.5.2.8.1-.3.1-.5.2-.8.1-.3.1-.5.3-.8l1.7-4.7c0-.1.1-.2.2-.3.1-.1.2-.1.4-.1h1.7l-3.5 8.7zM185.1 39.6v-8.7h1.2c.2 0 .4 0 .5.1.1.1.1.2.2.4l.1 1.1c.3-.5.7-1 1.1-1.3.4-.3.9-.5 1.4-.5.4 0 .8.1 1.1.3l-.3 1.6c0 .1-.1.2-.1.2-.1 0-.1.1-.2.1s-.2 0-.3-.1c-.1 0-.3-.1-.6-.1-.4 0-.8.1-1.1.4-.3.2-.6.6-.8 1.1v5.4h-2.2zM195.7 30.8c.7 0 1.2.1 1.8.3.5.2 1 .5 1.4.9.4.4.7.9.9 1.4.2.6.3 1.2.3 1.9s-.1 1.3-.3 1.9c-.2.6-.5 1-.9 1.4s-.8.7-1.4.9c-.5.2-1.1.3-1.8.3s-1.2-.1-1.8-.3c-.5-.2-1-.5-1.4-.9s-.7-.9-.9-1.4c-.2-.6-.3-1.2-.3-1.9s.1-1.3.3-1.9c.2-.6.5-1 .9-1.4.4-.4.8-.7 1.4-.9.6-.2 1.2-.3 1.8-.3zm0 7.4c.7 0 1.3-.2 1.6-.7s.5-1.2.5-2.1-.2-1.7-.5-2.2-.9-.7-1.6-.7c-.7 0-1.3.2-1.6.7s-.5 1.2-.5 2.1c0 .9.2 1.6.5 2.1s.9.8 1.6.8zM206.9 32.6c-.1.1-.1.2-.2.2s-.1.1-.2.1-.2 0-.3-.1-.3-.1-.4-.2c-.2-.1-.3-.1-.5-.2s-.4-.1-.7-.1c-.4 0-.7.1-1 .3s-.4.4-.4.7c0 .2.1.3.2.5.1.1.3.2.5.3s.4.2.7.3c.3.1.5.2.8.3s.5.2.8.3.5.3.7.4c.2.2.4.4.5.6.1.2.2.5.2.9s-.1.8-.2 1.2c-.2.4-.4.7-.7.9s-.7.5-1.1.6-.9.2-1.5.2c-.3 0-.6 0-.9-.1-.3-.1-.6-.1-.8-.2s-.5-.2-.7-.3c-.2-.1-.4-.3-.6-.4l.5-.8c.1-.1.1-.2.2-.2s.2-.1.3-.1c.1 0 .3 0 .4.1s.3.2.4.2c.2.1.3.2.5.2.2.1.5.1.8.1.2 0 .5 0 .6-.1s.3-.1.4-.2l.3-.3c.1-.1.1-.3.1-.4 0-.2-.1-.4-.2-.5-.1-.1-.3-.2-.5-.3-.2-.1-.4-.2-.7-.3s-.5-.2-.8-.3c-.3-.1-.5-.2-.8-.3s-.5-.3-.7-.5c-.2-.2-.4-.4-.5-.7-.1-.3-.2-.6-.2-1s.1-.7.2-1c.1-.3.4-.6.6-.8.3-.2.6-.4 1-.6s.9-.2 1.4-.2c.6 0 1.1.1 1.6.3s.9.5 1.2.8l-.3.7zM109.6 60v-8.7h1.3c.3 0 .5.1.5.4l.1.6.5-.5c.2-.1.3-.3.5-.4.2-.1.4-.2.6-.2.2-.1.5-.1.7-.1.5 0 1 .2 1.4.4.4.3.6.7.8 1.2.1-.3.3-.5.5-.7.2-.2.4-.4.7-.5.2-.1.5-.2.8-.3.3-.1.6-.1.8-.1.5 0 .9.1 1.3.2s.7.4.9.6.4.6.6 1c.1.4.2.9.2 1.4V60h-2.1v-5.6c0-.6-.1-1-.4-1.3-.2-.3-.6-.4-1.1-.4-.2 0-.4 0-.6.1-.2.1-.3.2-.5.3s-.2.3-.3.5c-.1.2-.1.5-.1.7V60h-2.1v-5.6c0-.6-.1-1-.4-1.3-.2-.3-.6-.4-1-.4-.3 0-.6.1-.8.2-.3.2-.5.4-.7.6V60h-2.1zM130.7 60h-.9c-.2 0-.4 0-.5-.1-.1-.1-.2-.2-.3-.4l-.2-.6c-.2.2-.4.4-.6.5-.2.1-.4.3-.7.4s-.5.2-.7.2-.5.1-.8.1c-.4 0-.7-.1-1-.1-.3-.1-.6-.2-.8-.4s-.4-.4-.5-.7c-.1-.3-.2-.6-.2-1 0-.3.1-.7.3-1 .2-.3.5-.6.9-.9.4-.3.9-.5 1.6-.6s1.5-.3 2.5-.3v-.5c0-.6-.1-1-.4-1.3-.2-.3-.6-.4-1.1-.4-.3 0-.6 0-.9.1s-.4.2-.6.3-.3.2-.5.3c-.1.1-.3.1-.5.1-.1 0-.3 0-.4-.1-.1-.1-.2-.2-.2-.3l-.4-.7c1-.9 2.2-1.4 3.6-1.4.5 0 1 .1 1.4.3.4.2.7.4 1 .7.3.3.5.7.6 1.1s.2.9.2 1.4V60zm-4.1-1.3c.2 0 .4 0 .6-.1.2 0 .4-.1.5-.2s.3-.2.5-.3c.1-.1.3-.2.5-.4v-1.5c-.6 0-1.1 0-1.5.1-.4.1-.7.2-1 .3-.2.1-.4.3-.5.4-.1.2-.2.3-.2.5 0 .4.1.6.3.8.2.4.5.4.8.4zM135.3 48.8c0 .2 0 .4-.1.5-.1.2-.2.3-.3.4-.1.1-.3.2-.4.3s-.3.1-.5.1-.4 0-.5-.1-.3-.2-.4-.3-.2-.3-.3-.4c-.1-.2-.1-.3-.1-.5s0-.4.1-.5c.1-.2.2-.3.3-.4s.3-.2.4-.3c.2-.1.3-.1.5-.1s.4 0 .5.1c.2.1.3.2.4.3.1.1.2.3.3.4.1.1.1.3.1.5zm-.3 2.5V60h-2.1v-8.7h2.1zM142.6 53c-.1.1-.1.2-.2.2s-.1.1-.2.1-.2 0-.3-.1-.3-.1-.4-.2c-.2-.1-.3-.1-.5-.2s-.4-.1-.7-.1c-.4 0-.7.1-1 .3s-.4.4-.4.7c0 .2.1.3.2.5.1.1.3.2.5.3.2.1.4.2.7.3.3.1.5.2.8.3.3.1.5.2.8.3.3.1.5.3.7.4.2.2.4.4.5.6.1.2.2.5.2.9s-.1.8-.2 1.2c-.2.4-.4.7-.7.9s-.7.5-1.1.6-.9.2-1.5.2c-.3 0-.6 0-.9-.1-.3-.1-.6-.1-.8-.2-.3-.1-.5-.2-.7-.3-.2-.1-.4-.3-.6-.4l.5-.8c.1-.1.1-.2.2-.2s.2-.1.3-.1c.1 0 .3 0 .4.1.1.1.3.2.4.2.2.1.3.2.5.2.2.1.5.1.8.1.2 0 .5 0 .6-.1.2-.1.3-.1.4-.2l.3-.3c.1-.1.1-.3.1-.4 0-.2-.1-.4-.2-.5-.1-.1-.3-.2-.5-.3-.2-.1-.4-.2-.7-.3s-.5-.2-.8-.3c-.3-.1-.5-.2-.8-.3-.3-.1-.5-.3-.7-.5s-.4-.4-.5-.7c-.1-.3-.2-.6-.2-1s.1-.7.2-1c.1-.3.4-.6.6-.8.3-.2.6-.4 1-.6s.9-.2 1.4-.2c.6 0 1.1.1 1.6.3.5.2.9.5 1.2.8l-.3.7zM152.5 60h-1.9l-3.5-8.7h1.7c.2 0 .3 0 .4.1.1.1.2.2.2.3l1.7 4.7c.1.3.2.5.2.8.1.3.1.5.2.8.1-.3.1-.5.2-.8.1-.3.1-.5.3-.8l1.7-4.7c0-.1.1-.2.2-.3.1-.1.2-.1.4-.1h1.7l-3.5 8.7zM160.5 51.2c.5 0 1.1.1 1.5.3s.9.4 1.2.8c.3.3.6.8.8 1.2.2.5.3 1 .3 1.7v.4c0 .1 0 .2-.1.2 0 .1-.1.1-.1.1H158.5c.1.9.3 1.6.7 2 .4.4 1 .6 1.7.6.3 0 .6 0 .9-.1.2-.1.5-.2.6-.3.2-.1.3-.2.5-.3.1-.1.3-.1.4-.1.1 0 .2 0 .2.1.1 0 .1.1.2.1l.6.8c-.2.3-.5.5-.8.7-.3.2-.6.3-.9.4s-.6.2-1 .2c-.3 0-.6.1-.9.1-.6 0-1.2-.1-1.7-.3s-1-.5-1.4-.9-.7-.9-.9-1.5c-.2-.6-.3-1.3-.3-2 0-.6.1-1.2.3-1.7.2-.5.5-1 .8-1.4.4-.4.8-.7 1.3-.9s1-.2 1.7-.2zm0 1.5c-.6 0-1.1.2-1.4.5s-.6.8-.7 1.5h3.9c0-.3 0-.5-.1-.8-.1-.2-.2-.5-.3-.6-.2-.2-.3-.3-.6-.4-.2-.2-.5-.2-.8-.2zM166 60v-8.7h1.3c.3 0 .5.1.5.4l.1.7c.2-.2.4-.3.6-.5.2-.1.4-.3.6-.4s.5-.2.7-.2.5-.1.8-.1c.5 0 .9.1 1.3.2.4.2.7.4.9.7.2.3.4.6.6 1 .1.4.2.9.2 1.3V60h-2.1v-5.6c0-.5-.1-.9-.4-1.2-.2-.3-.6-.4-1.1-.4-.4 0-.7.1-1 .2s-.6.4-.9.7V60H166zM181.8 60c-.3 0-.5-.1-.5-.4l-.2-.8-.6.6c-.2.2-.4.3-.6.4s-.5.2-.7.3c-.3.1-.5.1-.9.1-.5 0-.9-.1-1.3-.3-.4-.2-.7-.5-1-.9-.3-.4-.5-.8-.7-1.4-.2-.6-.2-1.2-.2-1.9 0-.6.1-1.2.3-1.8s.4-1 .8-1.4c.3-.4.7-.7 1.2-1 .5-.2 1-.3 1.5-.3s.9.1 1.2.2.7.4.9.6v-4.6h2.1V60h-1.3zm-2.8-1.5c.4 0 .8-.1 1.1-.3.3-.2.6-.4.9-.8v-3.9c-.2-.3-.5-.5-.8-.6s-.6-.2-.9-.2c-.3 0-.6.1-.9.2s-.5.3-.7.5c-.2.2-.3.5-.4.9-.1.4-.1.8-.1 1.3s0 .9.1 1.3.2.6.4.9c.2.2.3.4.6.5.1.2.4.2.7.2zM187.9 48.8c0 .2 0 .4-.1.5-.1.2-.2.3-.3.4-.1.1-.3.2-.4.3s-.3.1-.5.1-.4 0-.5-.1-.3-.2-.4-.3-.2-.3-.3-.4c-.1-.2-.1-.3-.1-.5s0-.4.1-.5c.1-.2.2-.3.3-.4s.3-.2.4-.3c.2-.1.3-.1.5-.1s.4 0 .5.1c.2.1.3.2.4.3.1.1.2.3.3.4 0 .1.1.3.1.5zm-.3 2.5V60h-2.1v-8.7h2.1zM196.1 60c-.3 0-.5-.1-.5-.4l-.2-.8-.6.6c-.2.2-.4.3-.6.4s-.5.2-.7.3c-.3.1-.5.1-.9.1-.5 0-.9-.1-1.3-.3-.4-.2-.7-.5-1-.9-.3-.4-.5-.8-.7-1.4-.2-.6-.2-1.2-.2-1.9 0-.6.1-1.2.3-1.8s.4-1 .8-1.4c.3-.4.7-.7 1.2-1 .5-.2 1-.3 1.5-.3s.9.1 1.2.2.7.4.9.6v-4.6h2.1V60h-1.3zm-2.8-1.5c.4 0 .8-.1 1.1-.3.3-.2.6-.4.9-.8v-3.9c-.2-.3-.5-.5-.8-.6s-.6-.2-.9-.2c-.3 0-.6.1-.9.2s-.5.3-.7.5c-.2.2-.3.5-.4.9-.1.4-.1.8-.1 1.3s0 .9.1 1.3.2.6.4.9c.2.2.3.4.6.5.1.2.4.2.7.2zM203.3 51.2c.7 0 1.2.1 1.8.3.5.2 1 .5 1.4.9.4.4.7.9.9 1.4s.3 1.2.3 1.9-.1 1.3-.3 1.9c-.2.6-.5 1-.9 1.4s-.8.7-1.4.9c-.5.2-1.1.3-1.8.3s-1.2-.1-1.8-.3c-.5-.2-1-.5-1.4-.9s-.7-.9-.9-1.4c-.2-.6-.3-1.2-.3-1.9s.1-1.3.3-1.9c.2-.6.5-1 .9-1.4.4-.4.8-.7 1.4-.9.6-.2 1.2-.3 1.8-.3zm0 7.4c.7 0 1.3-.2 1.6-.7.3-.5.5-1.2.5-2.1 0-.9-.2-1.7-.5-2.2-.3-.5-.9-.7-1.6-.7-.7 0-1.3.2-1.6.7s-.5 1.2-.5 2.1c0 .9.2 1.6.5 2.1s.9.8 1.6.8zM214.5 53c-.1.1-.1.2-.2.2s-.1.1-.2.1-.2 0-.3-.1-.3-.1-.4-.2c-.2-.1-.3-.1-.5-.2s-.4-.1-.7-.1c-.4 0-.7.1-1 .3s-.4.4-.4.7c0 .2.1.3.2.5.1.1.3.2.5.3.2.1.4.2.7.3.3.1.5.2.8.3.3.1.5.2.8.3.3.1.5.3.7.4.2.2.4.4.5.6.1.2.2.5.2.9s-.1.8-.2 1.2c-.2.4-.4.7-.7.9s-.7.5-1.1.6-.9.2-1.5.2c-.3 0-.6 0-.9-.1-.3-.1-.6-.1-.8-.2-.3-.1-.5-.2-.7-.3-.2-.1-.4-.3-.6-.4l.5-.8c.1-.1.1-.2.2-.2s.2-.1.3-.1c.1 0 .3 0 .4.1.1.1.3.2.4.2.2.1.3.2.5.2.2.1.5.1.8.1.2 0 .5 0 .6-.1.2-.1.3-.1.4-.2l.3-.3c.1-.1.1-.3.1-.4 0-.2-.1-.4-.2-.5-.1-.1-.3-.2-.5-.3-.2-.1-.4-.2-.7-.3s-.5-.2-.8-.3c-.3-.1-.5-.2-.8-.3-.3-.1-.5-.3-.7-.5s-.4-.4-.5-.7c-.1-.3-.2-.6-.2-1s.1-.7.2-1c.1-.3.4-.6.6-.8.3-.2.6-.4 1-.6s.9-.2 1.4-.2c.6 0 1.1.1 1.6.3.5.2.9.5 1.2.8l-.3.7z"/></g></svg>